<svg width="91" height="70" viewBox="0 0 91 70" fill="none" xmlns="http://www.w3.org/2000/svg">
<path d="M24.2496 49.7812C21.421 48.4302 21.421 46.2397 24.2496 44.8886L40.7417 37.0115C43.5703 35.6604 48.1564 35.6604 50.9851 37.0115L66.883 44.6049C69.7116 45.9559 69.7116 48.1464 66.883 49.4974L50.3909 57.3746C47.5623 58.7256 42.9762 58.7256 40.1476 57.3746L24.2496 49.7812Z" fill="#FFD166"/>
<path d="M24.2496 37.8867C21.421 36.5356 21.421 34.3452 24.2496 32.9941L40.7417 25.117C43.5703 23.7659 48.1564 23.7659 50.9851 25.117L66.883 32.7103C69.7116 34.0614 69.7116 36.2519 66.883 37.6029L50.3909 45.4801C47.5623 46.8311 42.9762 46.8311 40.1476 45.4801L24.2496 37.8867Z" fill="#22C55E"/>
<path d="M24.2496 25.9922C21.421 24.6411 21.421 22.4506 24.2496 21.0996L40.7417 13.2224C43.5703 11.8714 48.1564 11.8714 50.9851 13.2224L66.883 20.8158C69.7116 22.1669 69.7116 24.3574 66.883 25.7084L50.3909 33.5855C47.5623 34.9366 42.9762 34.9366 40.1476 33.5855L24.2496 25.9922Z" fill="#38BDF8"/>
<path d="M22.5693 70C20.2086 70 18.158 69.4754 16.4173 68.4262C14.7004 67.4008 13.3055 66.1012 12.2325 64.5273C11.0879 62.882 10.2533 61.0697 9.72875 59.0904C9.22801 57.1351 8.97764 55.2155 8.97764 53.3316V47.5013C8.97764 44.3298 8.23844 42.0525 6.76005 40.6694C5.28166 39.2863 3.02831 38.5948 0 38.5948V31.441C3.02831 31.441 5.28166 30.7494 6.76005 29.3664C8.23844 27.9833 8.97764 25.6822 8.97764 22.463V16.6326C8.97764 14.6057 9.26378 12.5192 9.83606 10.373C10.4083 8.20303 11.3144 6.3192 12.5544 4.72151C13.5797 3.33844 14.927 2.20576 16.5961 1.32345C18.2653 0.441151 20.2563 0 22.5693 0L23.7854 5.61574C22.3308 5.56805 21.2101 5.87804 20.4232 6.54573C19.6363 7.18958 19.0641 8.04803 18.7064 9.1211C18.3487 10.1942 18.1341 11.3984 18.0626 12.7338C18.0149 14.0453 17.991 15.3449 17.991 16.6326V22.463C17.991 25.3006 17.2876 27.8164 15.8808 30.0102C14.4978 32.2041 12.3398 33.8733 9.40685 35.0179C12.3636 36.1625 14.5335 37.8198 15.9165 39.9898C17.2995 42.1598 17.991 44.6636 17.991 47.5013V53.3316C17.991 54.6193 18.0626 55.9189 18.2056 57.2305C18.3726 58.5658 18.6706 59.7701 19.0998 60.8431C19.529 61.9162 20.1132 62.7747 20.8524 63.4185C21.6155 64.0862 22.5931 64.3962 23.7854 64.3485L22.5693 70Z" fill="#0F172A"/>
<path d="M67.2071 64.3485C68.3755 64.3962 69.3293 64.0862 70.0685 63.4185C70.8315 62.7747 71.4277 61.9162 71.8569 60.8431C72.2861 59.7701 72.5841 58.5658 72.7511 57.2305C72.918 55.9189 73.0014 54.6193 73.0014 53.3316V47.5013C73.0014 46.1182 73.1564 44.8067 73.4664 43.5667C73.8002 42.3267 74.301 41.1702 74.9686 40.0971C75.6363 39.024 76.4709 38.0702 77.4724 37.2356C78.4977 36.3771 79.7138 35.6498 81.1206 35.0537C79.9761 34.5767 78.9627 34.0044 78.0804 33.3367C77.1981 32.669 76.4351 31.9298 75.7913 31.1191C74.8375 29.9268 74.1341 28.6033 73.681 27.1487C73.228 25.6702 73.0014 24.1083 73.0014 22.463V16.6326C73.0014 15.3449 72.9657 14.0453 72.8941 12.7338C72.8464 11.3984 72.6438 10.1942 72.2861 9.1211C71.9284 8.04803 71.3561 7.18958 70.5692 6.54573C69.7824 5.87804 68.6616 5.56805 67.2071 5.61574L68.4232 0C70.9746 0 73.1207 0.524613 74.8613 1.57384C76.602 2.59922 78.0208 3.98229 79.1177 5.72305C80.1668 7.29688 80.906 9.06149 81.3353 11.0169C81.7883 12.9484 82.0148 14.8203 82.0148 16.6326V22.463C82.0148 23.7983 82.1341 24.9787 82.3725 26.0041C82.6348 27.0295 83.0282 27.8998 83.5528 28.6152C84.2443 29.5929 85.2101 30.3083 86.45 30.7614C87.7138 31.2144 89.2279 31.441 90.9925 31.441V38.5948C89.0133 38.5948 87.368 38.8809 86.0566 39.4532C84.7451 40.0017 83.7555 40.8959 83.0879 42.1359C82.7302 42.8036 82.456 43.5905 82.2652 44.4967C82.0983 45.379 82.0148 46.3805 82.0148 47.5013V53.3316C82.0148 55.1916 81.7406 57.1231 81.1922 59.1262C80.6437 61.1293 79.833 62.9177 78.76 64.4916C77.687 66.1369 76.2801 67.4604 74.5394 68.4619C72.8226 69.4873 70.7838 70 68.4232 70L67.2071 64.3485Z" fill="#0F172A"/>
</svg>
