<svg width="640" height="466" viewBox="0 0 640 466" fill="none" xmlns="http://www.w3.org/2000/svg">
<g clip-path="url(#clip0_19_392)">
<path d="M372.799 82.0578C384.794 82.0578 394.517 72.3341 394.517 60.3394C394.517 48.3446 384.794 38.621 372.799 38.621C360.804 38.621 351.081 48.3446 351.081 60.3394C351.081 72.3341 360.804 82.0578 372.799 82.0578Z" fill="#F2F2F2"/>
<path d="M541.275 404.384C573.557 379.796 588.976 338.478 579.323 299.063C579.084 298.083 578.83 297.106 578.564 296.131C572.165 272.735 556.332 250.499 533.258 243.023C513.883 236.746 492.734 241.573 472.521 239.077C432.843 234.177 402.08 202.072 380.435 168.458C358.79 134.844 342.155 97.218 313.394 69.4478C265.985 23.6734 188.649 13.8181 129.869 43.6138C71.0885 73.4096 33.6462 139.514 35.243 205.395C36.8399 271.277 75.9507 334.264 132.749 367.683C153.615 379.959 177.748 388.656 201.765 385.613C222.604 382.972 241.54 371.775 262.281 368.451C294.891 363.224 327.293 377.968 355.499 395.15C383.704 412.331 410.948 432.696 443 440.661C474.122 448.396 512.679 426.165 541.275 404.384Z" fill="#F2F2F2"/>
<path d="M0 353.252C7.06622 361.625 14.7091 369.494 22.8728 376.8L617.127 377.614C625.291 370.307 632.934 362.439 640 354.066L0 353.252Z" fill="#1E293B"/>
<path d="M402.983 277.851V347.562C402.984 348.451 403.337 349.303 403.965 349.931C404.593 350.559 405.445 350.912 406.334 350.913H509.639C510.528 350.912 511.379 350.559 512.008 349.931C512.636 349.303 512.989 348.451 512.99 347.562V277.851C512.987 276.963 512.634 276.112 512.006 275.485C511.378 274.858 510.527 274.505 509.639 274.504H406.334C405.446 274.505 404.595 274.858 403.967 275.485C403.339 276.112 402.985 276.963 402.983 277.851Z" fill="#3F3D56"/>
<path d="M405.406 278.718V346.702C405.407 347.177 405.596 347.632 405.932 347.968C406.267 348.303 406.722 348.492 407.197 348.493H508.779C509.254 348.492 509.709 348.303 510.044 347.968C510.38 347.632 510.569 347.177 510.57 346.702V278.718C510.57 278.243 510.381 277.787 510.045 277.451C509.71 277.114 509.254 276.925 508.779 276.924H407.197C406.722 276.925 406.266 277.114 405.931 277.451C405.595 277.787 405.407 278.243 405.406 278.718Z" fill="#1E293B" fill-opacity="0.666667"/>
<path d="M400.823 361.158C401.012 361.395 401.252 361.587 401.526 361.718C401.8 361.849 402.1 361.916 402.403 361.914H513.019C513.322 361.914 513.621 361.846 513.894 361.716C514.167 361.586 514.407 361.396 514.598 361.161C514.788 360.926 514.924 360.652 514.995 360.358C515.066 360.064 515.071 359.757 515.009 359.461L513.292 351.305C513.221 350.973 513.068 350.663 512.846 350.405C512.625 350.147 512.342 349.948 512.025 349.827C511.795 349.736 511.549 349.69 511.302 349.69H404.114C403.867 349.69 403.622 349.736 403.391 349.827C403.074 349.948 402.791 350.147 402.57 350.405C402.348 350.663 402.195 350.973 402.124 351.305L400.407 359.461C400.346 359.757 400.352 360.063 400.423 360.357C400.495 360.65 400.632 360.924 400.823 361.158Z" fill="#0F172A"/>
<path d="M507.507 353.203H510.12C510.339 353.203 510.517 353.026 510.517 352.806V351.556C510.517 351.337 510.339 351.159 510.12 351.159H507.507C507.288 351.159 507.11 351.337 507.11 351.556V352.806C507.11 353.026 507.288 353.203 507.507 353.203Z" fill="#3F3D56"/>
<path d="M500.693 353.203H503.306C503.525 353.203 503.703 353.026 503.703 352.806V351.556C503.703 351.337 503.525 351.159 503.306 351.159H500.693C500.473 351.159 500.296 351.337 500.296 351.556V352.806C500.296 353.026 500.473 353.203 500.693 353.203Z" fill="#3F3D56"/>
<path d="M493.879 353.203H496.492C496.711 353.203 496.889 353.026 496.889 352.806V351.556C496.889 351.337 496.711 351.159 496.492 351.159H493.879C493.66 351.159 493.482 351.337 493.482 351.556V352.806C493.482 353.026 493.66 353.203 493.879 353.203Z" fill="#3F3D56"/>
<path d="M487.065 353.203H489.678C489.897 353.203 490.075 353.026 490.075 352.806V351.556C490.075 351.337 489.897 351.159 489.678 351.159H487.065C486.846 351.159 486.668 351.337 486.668 351.556V352.806C486.668 353.026 486.846 353.203 487.065 353.203Z" fill="#3F3D56"/>
<path d="M480.251 353.203H482.864C483.083 353.203 483.261 353.026 483.261 352.806V351.556C483.261 351.337 483.083 351.159 482.864 351.159H480.251C480.032 351.159 479.854 351.337 479.854 351.556V352.806C479.854 353.026 480.032 353.203 480.251 353.203Z" fill="#3F3D56"/>
<path d="M473.438 353.203H476.05C476.27 353.203 476.448 353.026 476.448 352.806V351.556C476.448 351.337 476.27 351.159 476.05 351.159H473.438C473.218 351.159 473.041 351.337 473.041 351.556V352.806C473.041 353.026 473.218 353.203 473.438 353.203Z" fill="#3F3D56"/>
<path d="M466.624 353.203H469.236C469.456 353.203 469.634 353.026 469.634 352.806V351.556C469.634 351.337 469.456 351.159 469.236 351.159H466.624C466.404 351.159 466.227 351.337 466.227 351.556V352.806C466.227 353.026 466.404 353.203 466.624 353.203Z" fill="#3F3D56"/>
<path d="M459.81 353.203H462.423C462.642 353.203 462.82 353.026 462.82 352.806V351.556C462.82 351.337 462.642 351.159 462.423 351.159H459.81C459.591 351.159 459.413 351.337 459.413 351.556V352.806C459.413 353.026 459.591 353.203 459.81 353.203Z" fill="#3F3D56"/>
<path d="M452.996 353.203H455.609C455.828 353.203 456.006 353.026 456.006 352.806V351.556C456.006 351.337 455.828 351.159 455.609 351.159H452.996C452.777 351.159 452.599 351.337 452.599 351.556V352.806C452.599 353.026 452.777 353.203 452.996 353.203Z" fill="#3F3D56"/>
<path d="M446.182 353.203H448.795C449.014 353.203 449.192 353.026 449.192 352.806V351.556C449.192 351.337 449.014 351.159 448.795 351.159H446.182C445.963 351.159 445.785 351.337 445.785 351.556V352.806C445.785 353.026 445.963 353.203 446.182 353.203Z" fill="#3F3D56"/>
<path d="M439.368 353.203H441.981C442.2 353.203 442.378 353.026 442.378 352.806V351.556C442.378 351.337 442.2 351.159 441.981 351.159H439.368C439.149 351.159 438.971 351.337 438.971 351.556V352.806C438.971 353.026 439.149 353.203 439.368 353.203Z" fill="#3F3D56"/>
<path d="M432.554 353.203H435.167C435.386 353.203 435.564 353.026 435.564 352.806V351.556C435.564 351.337 435.386 351.159 435.167 351.159H432.554C432.335 351.159 432.157 351.337 432.157 351.556V352.806C432.157 353.026 432.335 353.203 432.554 353.203Z" fill="#3F3D56"/>
<path d="M425.741 353.203H428.353C428.573 353.203 428.75 353.026 428.75 352.806V351.556C428.75 351.337 428.573 351.159 428.353 351.159H425.741C425.521 351.159 425.344 351.337 425.344 351.556V352.806C425.344 353.026 425.521 353.203 425.741 353.203Z" fill="#3F3D56"/>
<path d="M418.927 353.203H421.539C421.759 353.203 421.937 353.026 421.937 352.806V351.556C421.937 351.337 421.759 351.159 421.539 351.159H418.927C418.707 351.159 418.53 351.337 418.53 351.556V352.806C418.53 353.026 418.707 353.203 418.927 353.203Z" fill="#3F3D56"/>
<path d="M412.113 353.203H414.726C414.945 353.203 415.123 353.026 415.123 352.806V351.556C415.123 351.337 414.945 351.159 414.726 351.159H412.113C411.894 351.159 411.716 351.337 411.716 351.556V352.806C411.716 353.026 411.894 353.203 412.113 353.203Z" fill="#3F3D56"/>
<path d="M405.299 353.203H407.912C408.131 353.203 408.309 353.026 408.309 352.806V351.556C408.309 351.337 408.131 351.159 407.912 351.159H405.299C405.08 351.159 404.902 351.337 404.902 351.556V352.806C404.902 353.026 405.08 353.203 405.299 353.203Z" fill="#3F3D56"/>
<path d="M507.587 356.61H510.2C510.419 356.61 510.597 356.432 510.597 356.213V354.963C510.597 354.744 510.419 354.566 510.2 354.566H507.587C507.368 354.566 507.19 354.744 507.19 354.963V356.213C507.19 356.432 507.368 356.61 507.587 356.61Z" fill="#3F3D56"/>
<path d="M500.773 356.61H503.386C503.605 356.61 503.783 356.432 503.783 356.213V354.963C503.783 354.744 503.605 354.566 503.386 354.566H500.773C500.554 354.566 500.376 354.744 500.376 354.963V356.213C500.376 356.432 500.554 356.61 500.773 356.61Z" fill="#3F3D56"/>
<path d="M493.96 356.61H496.572C496.792 356.61 496.969 356.432 496.969 356.213V354.963C496.969 354.744 496.792 354.566 496.572 354.566H493.96C493.74 354.566 493.563 354.744 493.563 354.963V356.213C493.563 356.432 493.74 356.61 493.96 356.61Z" fill="#3F3D56"/>
<path d="M487.146 356.61H489.758C489.978 356.61 490.156 356.432 490.156 356.213V354.963C490.156 354.744 489.978 354.566 489.758 354.566H487.146C486.926 354.566 486.749 354.744 486.749 354.963V356.213C486.749 356.432 486.926 356.61 487.146 356.61Z" fill="#3F3D56"/>
<path d="M480.332 356.61H482.945C483.164 356.61 483.342 356.432 483.342 356.213V354.963C483.342 354.744 483.164 354.566 482.945 354.566H480.332C480.113 354.566 479.935 354.744 479.935 354.963V356.213C479.935 356.432 480.113 356.61 480.332 356.61Z" fill="#3F3D56"/>
<path d="M473.518 356.61H476.131C476.35 356.61 476.528 356.432 476.528 356.213V354.963C476.528 354.744 476.35 354.566 476.131 354.566H473.518C473.299 354.566 473.121 354.744 473.121 354.963V356.213C473.121 356.432 473.299 356.61 473.518 356.61Z" fill="#3F3D56"/>
<path d="M466.704 356.61H469.317C469.536 356.61 469.714 356.432 469.714 356.213V354.963C469.714 354.744 469.536 354.566 469.317 354.566H466.704C466.485 354.566 466.307 354.744 466.307 354.963V356.213C466.307 356.432 466.485 356.61 466.704 356.61Z" fill="#3F3D56"/>
<path d="M459.89 356.61H462.503C462.722 356.61 462.9 356.432 462.9 356.213V354.963C462.9 354.744 462.722 354.566 462.503 354.566H459.89C459.671 354.566 459.493 354.744 459.493 354.963V356.213C459.493 356.432 459.671 356.61 459.89 356.61Z" fill="#3F3D56"/>
<path d="M453.077 356.61H455.689C455.909 356.61 456.086 356.432 456.086 356.213V354.963C456.086 354.744 455.909 354.566 455.689 354.566H453.077C452.857 354.566 452.68 354.744 452.68 354.963V356.213C452.68 356.432 452.857 356.61 453.077 356.61Z" fill="#3F3D56"/>
<path d="M446.263 356.61H448.875C449.095 356.61 449.272 356.432 449.272 356.213V354.963C449.272 354.744 449.095 354.566 448.875 354.566H446.263C446.043 354.566 445.866 354.744 445.866 354.963V356.213C445.866 356.432 446.043 356.61 446.263 356.61Z" fill="#3F3D56"/>
<path d="M439.449 356.61H442.061C442.281 356.61 442.458 356.432 442.458 356.213V354.963C442.458 354.744 442.281 354.566 442.061 354.566H439.449C439.229 354.566 439.052 354.744 439.052 354.963V356.213C439.052 356.432 439.229 356.61 439.449 356.61Z" fill="#3F3D56"/>
<path d="M432.635 356.61H435.248C435.467 356.61 435.645 356.432 435.645 356.213V354.963C435.645 354.744 435.467 354.566 435.248 354.566H432.635C432.416 354.566 432.238 354.744 432.238 354.963V356.213C432.238 356.432 432.416 356.61 432.635 356.61Z" fill="#3F3D56"/>
<path d="M425.821 356.61H428.434C428.653 356.61 428.831 356.432 428.831 356.213V354.963C428.831 354.744 428.653 354.566 428.434 354.566H425.821C425.602 354.566 425.424 354.744 425.424 354.963V356.213C425.424 356.432 425.602 356.61 425.821 356.61Z" fill="#3F3D56"/>
<path d="M419.007 356.61H421.62C421.839 356.61 422.017 356.432 422.017 356.213V354.963C422.017 354.744 421.839 354.566 421.62 354.566H419.007C418.788 354.566 418.61 354.744 418.61 354.963V356.213C418.61 356.432 418.788 356.61 419.007 356.61Z" fill="#3F3D56"/>
<path d="M412.194 356.61H414.806C415.026 356.61 415.203 356.432 415.203 356.213V354.963C415.203 354.744 415.026 354.566 414.806 354.566H412.194C411.974 354.566 411.796 354.744 411.796 354.963V356.213C411.796 356.432 411.974 356.61 412.194 356.61Z" fill="#3F3D56"/>
<path d="M405.38 356.61H407.992C408.212 356.61 408.389 356.432 408.389 356.213V354.963C408.389 354.744 408.212 354.566 407.992 354.566H405.38C405.16 354.566 404.982 354.744 404.982 354.963V356.213C404.982 356.432 405.16 356.61 405.38 356.61Z" fill="#3F3D56"/>
<path d="M451.032 360.699H477.494C477.713 360.699 477.891 360.521 477.891 360.301V359.051C477.891 358.832 477.713 358.654 477.494 358.654H451.032C450.813 358.654 450.635 358.832 450.635 359.051V360.301C450.635 360.521 450.813 360.699 451.032 360.699Z" fill="#3F3D56"/>
<path d="M422.998 291.797H420.685C419.983 291.797 419.415 292.366 419.415 293.067C419.415 293.768 419.983 294.337 420.685 294.337H422.998C423.699 294.337 424.267 293.768 424.267 293.067C424.267 292.366 423.699 291.797 422.998 291.797Z" fill="#38BDF8"/>
<path d="M449.452 291.797H447.139C446.437 291.797 445.869 292.366 445.869 293.067C445.869 293.768 446.437 294.337 447.139 294.337H449.452C450.153 294.337 450.722 293.768 450.722 293.067C450.722 292.366 450.153 291.797 449.452 291.797Z" fill="#38BDF8"/>
<path d="M456.947 291.797H454.634C453.933 291.797 453.364 292.366 453.364 293.067C453.364 293.768 453.933 294.337 454.634 294.337H456.947C457.648 294.337 458.217 293.768 458.217 293.067C458.217 292.366 457.648 291.797 456.947 291.797Z" fill="#38BDF8"/>
<path d="M442.256 291.585H427.88C427.179 291.585 426.61 292.154 426.61 292.855C426.61 293.556 427.179 294.125 427.88 294.125H442.256C442.957 294.125 443.526 293.556 443.526 292.855C443.526 292.154 442.957 291.585 442.256 291.585Z" fill="#38BDF8"/>
<path d="M477.528 291.585H463.152C462.451 291.585 461.883 292.154 461.883 292.855C461.883 293.556 462.451 294.125 463.152 294.125H477.528C478.23 294.125 478.798 293.556 478.798 292.855C478.798 292.154 478.23 291.585 477.528 291.585Z" fill="#38BDF8"/>
<path d="M430.052 297.529H427.739C427.038 297.529 426.469 298.097 426.469 298.799C426.469 299.5 427.038 300.068 427.739 300.068H430.052C430.753 300.068 431.322 299.5 431.322 298.799C431.322 298.097 430.753 297.529 430.052 297.529Z" fill="#38BDF8"/>
<path d="M456.506 297.529H454.193C453.492 297.529 452.923 298.097 452.923 298.799C452.923 299.5 453.492 300.068 454.193 300.068H456.506C457.207 300.068 457.776 299.5 457.776 298.799C457.776 298.097 457.207 297.529 456.506 297.529Z" fill="#38BDF8"/>
<path d="M464.002 297.529H461.689C460.987 297.529 460.419 298.097 460.419 298.799C460.419 299.5 460.987 300.068 461.689 300.068H464.002C464.703 300.068 465.272 299.5 465.272 298.799C465.272 298.097 464.703 297.529 464.002 297.529Z" fill="#38BDF8"/>
<path d="M449.311 297.317H434.935C434.233 297.317 433.665 297.886 433.665 298.587C433.665 299.288 434.233 299.857 434.935 299.857H449.311C450.012 299.857 450.58 299.288 450.58 298.587C450.58 297.886 450.012 297.317 449.311 297.317Z" fill="#38BDF8"/>
<path d="M484.583 297.317H470.207C469.506 297.317 468.937 297.886 468.937 298.587C468.937 299.288 469.506 299.857 470.207 299.857H484.583C485.284 299.857 485.853 299.288 485.853 298.587C485.853 297.886 485.284 297.317 484.583 297.317Z" fill="#38BDF8"/>
<path d="M437.106 303.26H434.793C434.092 303.26 433.524 303.829 433.524 304.53C433.524 305.232 434.092 305.8 434.793 305.8H437.106C437.808 305.8 438.376 305.232 438.376 304.53C438.376 303.829 437.808 303.26 437.106 303.26Z" fill="#38BDF8"/>
<path d="M463.561 303.26H461.248C460.546 303.26 459.978 303.829 459.978 304.53C459.978 305.232 460.546 305.8 461.248 305.8H463.561C464.262 305.8 464.831 305.232 464.831 304.53C464.831 303.829 464.262 303.26 463.561 303.26Z" fill="#38BDF8"/>
<path d="M471.056 303.26H468.743C468.042 303.26 467.473 303.829 467.473 304.53C467.473 305.232 468.042 305.8 468.743 305.8H471.056C471.758 305.8 472.326 305.232 472.326 304.53C472.326 303.829 471.758 303.26 471.056 303.26Z" fill="#38BDF8"/>
<path d="M456.365 303.049H441.989C441.288 303.049 440.719 303.617 440.719 304.319C440.719 305.02 441.288 305.588 441.989 305.588H456.365C457.066 305.588 457.635 305.02 457.635 304.319C457.635 303.617 457.066 303.049 456.365 303.049Z" fill="#38BDF8"/>
<path d="M491.638 303.049H477.261C476.56 303.049 475.992 303.617 475.992 304.319C475.992 305.02 476.56 305.588 477.261 305.588H491.638C492.339 305.588 492.907 305.02 492.907 304.319C492.907 303.617 492.339 303.049 491.638 303.049Z" fill="#38BDF8"/>
<path d="M444.161 308.992H441.848C441.147 308.992 440.578 309.561 440.578 310.262C440.578 310.963 441.147 311.532 441.848 311.532H444.161C444.862 311.532 445.431 310.963 445.431 310.262C445.431 309.561 444.862 308.992 444.161 308.992Z" fill="#38BDF8"/>
<path d="M470.615 308.992H468.302C467.601 308.992 467.032 309.561 467.032 310.262C467.032 310.963 467.601 311.532 468.302 311.532H470.615C471.317 311.532 471.885 310.963 471.885 310.262C471.885 309.561 471.317 308.992 470.615 308.992Z" fill="#38BDF8"/>
<path d="M478.111 308.992H475.798C475.096 308.992 474.528 309.561 474.528 310.262C474.528 310.963 475.096 311.532 475.798 311.532H478.111C478.812 311.532 479.38 310.963 479.38 310.262C479.38 309.561 478.812 308.992 478.111 308.992Z" fill="#38BDF8"/>
<path d="M463.419 308.781H449.043C448.342 308.781 447.774 309.349 447.774 310.05C447.774 310.752 448.342 311.32 449.043 311.32H463.419C464.121 311.32 464.689 310.752 464.689 310.05C464.689 309.349 464.121 308.781 463.419 308.781Z" fill="#38BDF8"/>
<path d="M449.452 331.784H447.139C446.437 331.784 445.869 332.353 445.869 333.054C445.869 333.755 446.437 334.324 447.139 334.324H449.452C450.153 334.324 450.722 333.755 450.722 333.054C450.722 332.353 450.153 331.784 449.452 331.784Z" fill="#38BDF8"/>
<path d="M456.947 331.784H454.634C453.933 331.784 453.364 332.353 453.364 333.054C453.364 333.755 453.933 334.324 454.634 334.324H456.947C457.648 334.324 458.217 333.755 458.217 333.054C458.217 332.353 457.648 331.784 456.947 331.784Z" fill="#38BDF8"/>
<path d="M477.528 331.996H463.152C462.451 331.996 461.883 332.564 461.883 333.266C461.883 333.967 462.451 334.535 463.152 334.535H477.528C478.23 334.535 478.798 333.967 478.798 333.266C478.798 332.564 478.23 331.996 477.528 331.996Z" fill="#38BDF8"/>
<path d="M422.998 331.784H420.685C419.983 331.784 419.415 332.353 419.415 333.054C419.415 333.755 419.983 334.324 420.685 334.324H422.998C423.699 334.324 424.267 333.755 424.267 333.054C424.267 332.353 423.699 331.784 422.998 331.784Z" fill="#38BDF8"/>
<path d="M442.256 331.996H427.88C427.179 331.996 426.61 332.564 426.61 333.266C426.61 333.967 427.179 334.535 427.88 334.535H442.256C442.957 334.535 443.526 333.967 443.526 333.266C443.526 332.564 442.957 331.996 442.256 331.996Z" fill="#38BDF8"/>
<path d="M430.052 326.052H427.739C427.038 326.052 426.469 326.621 426.469 327.322C426.469 328.023 427.038 328.592 427.739 328.592H430.052C430.753 328.592 431.322 328.023 431.322 327.322C431.322 326.621 430.753 326.052 430.052 326.052Z" fill="#38BDF8"/>
<path d="M456.506 326.052H454.193C453.492 326.052 452.923 326.621 452.923 327.322C452.923 328.023 453.492 328.592 454.193 328.592H456.506C457.207 328.592 457.776 328.023 457.776 327.322C457.776 326.621 457.207 326.052 456.506 326.052Z" fill="#38BDF8"/>
<path d="M464.002 326.052H461.689C460.987 326.052 460.419 326.621 460.419 327.322C460.419 328.023 460.987 328.592 461.689 328.592H464.002C464.703 328.592 465.272 328.023 465.272 327.322C465.272 326.621 464.703 326.052 464.002 326.052Z" fill="#38BDF8"/>
<path d="M449.311 326.264H434.935C434.233 326.264 433.665 326.833 433.665 327.534C433.665 328.235 434.233 328.804 434.935 328.804H449.311C450.012 328.804 450.58 328.235 450.58 327.534C450.58 326.833 450.012 326.264 449.311 326.264Z" fill="#38BDF8"/>
<path d="M437.106 320.321H434.793C434.092 320.321 433.524 320.889 433.524 321.59C433.524 322.292 434.092 322.86 434.793 322.86H437.106C437.808 322.86 438.376 322.292 438.376 321.59C438.376 320.889 437.808 320.321 437.106 320.321Z" fill="#38BDF8"/>
<path d="M463.561 320.321H461.248C460.546 320.321 459.978 320.889 459.978 321.59C459.978 322.292 460.546 322.86 461.248 322.86H463.561C464.262 322.86 464.831 322.292 464.831 321.59C464.831 320.889 464.262 320.321 463.561 320.321Z" fill="#38BDF8"/>
<path d="M471.056 320.321H468.743C468.042 320.321 467.473 320.889 467.473 321.59C467.473 322.292 468.042 322.86 468.743 322.86H471.056C471.758 322.86 472.326 322.292 472.326 321.59C472.326 320.889 471.758 320.321 471.056 320.321Z" fill="#38BDF8"/>
<path d="M456.365 320.532H441.989C441.288 320.532 440.719 321.101 440.719 321.802C440.719 322.503 441.288 323.072 441.989 323.072H456.365C457.066 323.072 457.635 322.503 457.635 321.802C457.635 321.101 457.066 320.532 456.365 320.532Z" fill="#38BDF8"/>
<path d="M444.161 314.589H441.848C441.147 314.589 440.578 315.157 440.578 315.859C440.578 316.56 441.147 317.128 441.848 317.128H444.161C444.862 317.128 445.431 316.56 445.431 315.859C445.431 315.157 444.862 314.589 444.161 314.589Z" fill="#38BDF8"/>
<path d="M470.615 314.589H468.302C467.601 314.589 467.032 315.157 467.032 315.859C467.032 316.56 467.601 317.128 468.302 317.128H470.615C471.317 317.128 471.885 316.56 471.885 315.859C471.885 315.157 471.317 314.589 470.615 314.589Z" fill="#38BDF8"/>
<path d="M478.111 314.589H475.798C475.096 314.589 474.528 315.157 474.528 315.859C474.528 316.56 475.096 317.128 475.798 317.128H478.111C478.812 317.128 479.38 316.56 479.38 315.859C479.38 315.157 478.812 314.589 478.111 314.589Z" fill="#38BDF8"/>
<path d="M463.419 314.801H449.043C448.342 314.801 447.774 315.369 447.774 316.07C447.774 316.772 448.342 317.34 449.043 317.34H463.419C464.121 317.34 464.689 316.772 464.689 316.07C464.689 315.369 464.121 314.801 463.419 314.801Z" fill="#38BDF8"/>
<path d="M410.7 398.958L399.842 381.794L433.925 354.624L447.993 339.038C449.82 337.014 452.148 335.504 454.742 334.66C457.336 333.816 460.105 333.668 462.775 334.23C465.444 334.793 467.919 336.045 469.952 337.864C471.985 339.682 473.506 342.002 474.362 344.592C475.63 348.431 475.357 352.611 473.601 356.252C471.845 359.893 468.743 362.709 464.95 364.107L442.705 372.302L410.7 398.958Z" fill="#FFB6B6"/>
<path d="M155.921 274.507V357.93H214.364V274.507C214.365 273.907 214.173 273.323 213.818 272.84C213.462 272.356 212.96 272 212.387 271.823C212.117 271.734 211.834 271.69 211.549 271.693H158.743C158.373 271.692 158.007 271.764 157.664 271.905C157.322 272.046 157.011 272.254 156.749 272.515C156.487 272.776 156.279 273.087 156.137 273.429C155.995 273.77 155.921 274.137 155.921 274.507ZM178.729 303.171C178.744 301.527 179.408 299.955 180.576 298.797C181.745 297.64 183.323 296.99 184.967 296.99C186.612 296.99 188.19 297.64 189.359 298.797C190.527 299.955 191.191 301.527 191.206 303.171V312.851C191.198 314.5 190.537 316.079 189.368 317.242C188.199 318.405 186.617 319.058 184.967 319.058C183.318 319.058 181.736 318.405 180.567 317.242C179.398 316.079 178.737 314.5 178.729 312.851V303.171Z" fill="#0F172A"/>
<path d="M155.742 355.262V363.306C155.743 363.723 155.909 364.122 156.203 364.418C156.497 364.713 156.895 364.881 157.312 364.884H212.973C213.39 364.882 213.789 364.715 214.083 364.419C214.378 364.123 214.543 363.723 214.543 363.306V355.262H155.742Z" fill="#3F3D56"/>
<path d="M63.9822 148.821V301.138C63.9837 303.079 64.7555 304.94 66.128 306.313C67.5006 307.685 69.3617 308.457 71.3028 308.458H297.022C298.963 308.457 300.824 307.685 302.196 306.313C303.569 304.94 304.341 303.079 304.342 301.138V148.821C304.338 146.881 303.564 145.023 302.192 143.652C300.82 142.281 298.961 141.511 297.022 141.508H71.3028C69.3634 141.511 67.504 142.281 66.1319 143.652C64.7598 145.023 63.9868 146.881 63.9822 148.821Z" fill="#3F3D56"/>
<path d="M69.2773 150.716V299.259C69.2791 300.296 69.6919 301.29 70.4252 302.023C71.1586 302.757 72.1527 303.17 73.1898 303.171H295.142C296.18 303.17 297.174 302.757 297.907 302.023C298.64 301.29 299.053 300.296 299.055 299.259V150.716C299.055 149.677 298.643 148.681 297.909 147.946C297.176 147.211 296.181 146.797 295.142 146.795H73.1898C72.1514 146.797 71.1564 147.211 70.4229 147.946C69.6894 148.681 69.2775 149.677 69.2773 150.716Z" fill="white"/>
<path d="M110.468 364.339C110.694 364.622 110.981 364.851 111.308 365.007C111.635 365.164 111.993 365.244 112.355 365.242H244.403C244.764 365.242 245.12 365.161 245.446 365.005C245.772 364.85 246.059 364.623 246.287 364.343C246.514 364.062 246.676 363.735 246.761 363.384C246.846 363.033 246.852 362.667 246.778 362.314L244.728 352.577C244.643 352.18 244.46 351.811 244.196 351.503C243.932 351.194 243.594 350.957 243.215 350.812C242.94 350.705 242.648 350.649 242.353 350.65H114.397C114.102 350.649 113.809 350.705 113.534 350.812C113.155 350.957 112.818 351.194 112.554 351.502C112.289 351.811 112.106 352.18 112.022 352.577L109.972 362.314C109.899 362.667 109.906 363.032 109.991 363.382C110.077 363.733 110.24 364.06 110.468 364.339Z" fill="#0F172A"/>
<path d="M287.939 167.258H80.2592C80.0433 167.253 79.8379 167.164 79.6869 167.009C79.5359 166.855 79.4514 166.648 79.4514 166.432C79.4514 166.216 79.5359 166.008 79.6869 165.854C79.8379 165.7 80.0433 165.611 80.2592 165.606H287.939C288.155 165.611 288.361 165.7 288.512 165.854C288.663 166.008 288.747 166.216 288.747 166.432C288.747 166.648 288.663 166.855 288.512 167.009C288.361 167.164 288.155 167.253 287.939 167.258Z" fill="#1E293B"/>
<path d="M277.871 152.717H265.995C265.761 152.722 265.537 152.819 265.373 152.987C265.209 153.155 265.117 153.381 265.117 153.615C265.117 153.85 265.209 154.076 265.373 154.244C265.537 154.412 265.761 154.509 265.995 154.514H277.871C278.107 154.511 278.333 154.415 278.498 154.247C278.664 154.078 278.757 153.852 278.757 153.615C278.757 153.379 278.664 153.153 278.498 152.984C278.333 152.816 278.107 152.72 277.871 152.717Z" fill="#3F3D56"/>
<path d="M277.871 156.092H265.995C265.76 156.098 265.537 156.195 265.373 156.363C265.208 156.53 265.116 156.756 265.116 156.991C265.116 157.226 265.208 157.452 265.373 157.62C265.537 157.788 265.76 157.885 265.995 157.89H277.871C278.108 157.887 278.333 157.791 278.5 157.623C278.666 157.455 278.759 157.228 278.759 156.991C278.759 156.755 278.666 156.528 278.5 156.359C278.333 156.191 278.108 156.095 277.871 156.092Z" fill="#3F3D56"/>
<path d="M277.871 159.468H265.995C265.761 159.473 265.537 159.57 265.373 159.738C265.209 159.906 265.117 160.132 265.117 160.367C265.117 160.602 265.209 160.827 265.373 160.995C265.537 161.163 265.761 161.26 265.995 161.265H277.871C278.107 161.262 278.333 161.166 278.498 160.998C278.664 160.83 278.757 160.603 278.757 160.367C278.757 160.13 278.664 159.904 278.498 159.736C278.333 159.567 278.107 159.471 277.871 159.468Z" fill="#3F3D56"/>
<path d="M564.171 358.792C564.53 359.835 565.21 360.739 566.113 361.371C567.017 362.004 568.098 362.335 569.201 362.315L590.749 361.76C591.86 361.739 592.935 361.358 593.812 360.675C594.688 359.993 595.321 359.044 595.614 357.972L598.663 325.365C599.745 325.856 600.923 326.098 602.111 326.074C603.142 326.048 604.159 325.819 605.102 325.4C606.045 324.982 606.897 324.381 607.608 323.633C608.319 322.885 608.876 322.005 609.247 321.042C609.618 320.079 609.795 319.052 609.769 318.02C609.743 316.989 609.515 315.972 609.096 315.029C608.677 314.086 608.077 313.234 607.329 312.523C606.581 311.812 605.701 311.255 604.738 310.884C603.774 310.513 602.748 310.336 601.716 310.362C601.241 310.36 600.768 310.409 600.304 310.508C599.799 309.962 599.186 309.528 598.503 309.233C597.82 308.939 597.083 308.79 596.339 308.798L563.193 309.654C562.918 309.664 562.644 309.698 562.375 309.755C561.648 309.891 560.959 310.18 560.353 310.605C559.748 311.029 559.24 311.578 558.865 312.215C558.489 312.852 558.254 313.562 558.176 314.297C558.098 315.033 558.178 315.776 558.411 316.478L564.171 358.792ZM599.289 323.151L601.459 315.381C601.705 314.484 601.711 313.537 601.475 312.636C601.58 312.636 601.673 312.586 601.779 312.586C603.266 312.555 604.706 313.116 605.781 314.144C606.856 315.173 607.479 316.586 607.514 318.074C607.549 319.562 606.993 321.003 605.967 322.081C604.941 323.159 603.529 323.786 602.042 323.825C601.08 323.855 600.128 323.622 599.289 323.151Z" fill="#0F172A"/>
<path d="M562.375 309.755C563.081 313.793 571.021 316.632 580.568 316.138C589.346 315.734 596.524 312.651 597.84 308.998C597.353 308.854 596.847 308.786 596.339 308.798L563.193 309.654C562.918 309.664 562.644 309.698 562.375 309.755Z" fill="#3F3D56"/>
<path d="M582.317 340.874C582.361 340.863 582.402 340.845 582.44 340.82L587.119 337.757C587.176 337.72 587.223 337.67 587.255 337.611C587.287 337.551 587.304 337.485 587.304 337.417C587.304 337.35 587.287 337.283 587.255 337.224C587.223 337.164 587.176 337.114 587.12 337.077L582.256 333.891C582.211 333.862 582.161 333.841 582.109 333.831C582.056 333.821 582.002 333.821 581.95 333.832C581.897 333.843 581.847 333.864 581.803 333.894C581.759 333.924 581.721 333.963 581.692 334.007C581.662 334.052 581.642 334.102 581.632 334.155C581.622 334.208 581.623 334.262 581.634 334.314C581.645 334.366 581.666 334.416 581.696 334.46C581.727 334.504 581.765 334.542 581.81 334.571L586.154 337.417L581.995 340.14C581.914 340.192 581.855 340.272 581.827 340.364C581.8 340.456 581.806 340.555 581.845 340.644C581.884 340.732 581.952 340.803 582.039 340.845C582.125 340.888 582.224 340.898 582.317 340.874Z" fill="#38BDF8"/>
<path d="M574.926 341.215C575.005 341.195 575.075 341.152 575.129 341.092C575.183 341.032 575.218 340.956 575.229 340.876C575.24 340.796 575.227 340.714 575.191 340.642C575.156 340.569 575.099 340.508 575.029 340.468L570.715 337.995L574.884 334.898C574.927 334.867 574.963 334.827 574.991 334.781C575.018 334.735 575.036 334.684 575.044 334.631C575.052 334.579 575.049 334.525 575.036 334.473C575.023 334.421 575 334.373 574.968 334.33C574.936 334.287 574.896 334.251 574.851 334.223C574.805 334.196 574.754 334.178 574.701 334.17C574.648 334.162 574.595 334.165 574.543 334.178C574.491 334.191 574.442 334.214 574.4 334.246L569.732 337.713C569.678 337.753 569.634 337.806 569.606 337.868C569.577 337.929 569.564 337.996 569.568 338.063C569.572 338.131 569.593 338.196 569.628 338.254C569.664 338.311 569.713 338.359 569.772 338.392L574.624 341.174C574.715 341.226 574.824 341.241 574.926 341.215Z" fill="#38BDF8"/>
<path d="M581.852 343.559C581.891 343.549 581.929 343.533 581.963 343.511C582.009 343.484 582.049 343.447 582.08 343.404C582.112 343.361 582.134 343.312 582.147 343.26C582.16 343.208 582.162 343.154 582.154 343.102C582.146 343.049 582.127 342.998 582.099 342.953L575.466 332.046C575.409 331.954 575.319 331.888 575.214 331.863C575.109 331.838 574.999 331.855 574.907 331.911C574.815 331.967 574.749 332.057 574.723 332.162C574.698 332.267 574.715 332.377 574.771 332.47L581.404 343.376C581.45 343.45 581.518 343.508 581.598 343.541C581.679 343.574 581.767 343.58 581.852 343.559Z" fill="#38BDF8"/>
<path d="M208.913 212.157H172.969C171.502 212.157 170.313 213.346 170.313 214.812V218.324C170.313 219.79 171.502 220.979 172.969 220.979H208.913C210.38 220.979 211.568 219.79 211.568 218.324V214.812C211.568 213.346 210.38 212.157 208.913 212.157Z" fill="#38BDF8"/>
<path d="M229.866 229.801H152.017C150.55 229.801 149.362 230.989 149.362 232.456V235.968C149.362 237.434 150.55 238.623 152.017 238.623H229.866C231.332 238.623 232.521 237.434 232.521 235.968V232.456C232.521 230.989 231.332 229.801 229.866 229.801Z" fill="#E6E6E6"/>
<path d="M229.866 247.445H152.017C150.55 247.445 149.362 248.633 149.362 250.1V253.611C149.362 255.078 150.55 256.266 152.017 256.266H229.866C231.332 256.266 232.521 255.078 232.521 253.611V250.1C232.521 248.633 231.332 247.445 229.866 247.445Z" fill="#E6E6E6"/>
<path d="M236.465 306.527L236.641 307.083L236.65 307.102L241.958 323.238L248.064 341.833L259.551 376.778L259.662 382.206V382.225L260.516 425.892L258.15 431.812L260.813 441.518C260.813 441.518 259.588 426.846 253.019 435.272C249.298 440.06 244.946 444.959 241.373 449.552C246.579 451.659 251.868 453.564 257.241 455.268C258.4 455.639 259.57 455.992 260.739 456.344C260.989 456.419 261.24 456.493 261.49 456.567C279.3 461.834 297.711 464.793 316.274 465.373C317.239 465.401 318.185 465.419 319.104 465.438C319.429 465.447 319.744 465.456 320.059 465.456C321.099 465.466 322.129 465.475 323.168 465.475C325.265 465.475 327.353 465.444 329.431 465.382C344.815 464.949 360.11 462.88 375.056 459.212C374.954 453.041 374.676 445.831 374.277 438.13C374.091 434.353 369.925 430.261 369.674 426.308C369.498 423.339 373.237 420.546 373.043 417.53C371.781 398.963 370.203 406.09 369.034 392.942C368.913 391.652 368.802 390.418 368.7 389.24C367.948 380.796 367.429 375.516 367.429 375.516L372.421 344.051L380.262 294.65L379.658 293.657L378.981 293.323L337.625 272.853L335.379 267.1C334.725 265.443 333.59 264.019 332.12 263.012C330.65 262.005 328.912 261.461 327.13 261.449L299.887 261.338C298.473 261.332 297.078 261.662 295.818 262.303C294.557 262.944 293.468 263.876 292.64 265.022L285.263 275.238L236.465 306.527Z" fill="#3F3D56"/>
<path d="M265.833 369.002L259.662 382.206L255.45 391.225L248.203 429.167L244.575 433.018L241.466 419.386L208.932 426.61C207.865 420.681 208.646 426.81 207.988 420.306C208.173 420.12 208.368 419.935 208.563 419.749C209.082 419.267 209.519 418.812 209.509 418.376C209.138 395.939 210.252 357.756 219.549 334.624C221.005 330.847 222.925 327.265 225.265 323.962C225.451 323.711 225.627 323.461 225.803 323.21C230.09 317.207 232.8 311.296 236.641 307.093V307.083C236.665 307.064 236.687 307.042 236.706 307.018C236.72 307.012 236.733 307.002 236.743 306.991L263.133 292.998L264.265 324.806L265.072 347.67L265.833 369.002Z" fill="#3F3D56"/>
<path d="M360.989 372.753L368.696 389.244L371.387 394.988L378.631 432.926L382.248 436.767L385.363 423.139L386.827 422.838L413.229 417.37L420.924 441.81C422.659 438.92 423.342 435.52 422.859 432.185C422.375 428.849 420.755 425.783 418.271 423.504C417.746 423.028 417.308 422.566 417.321 422.128C417.758 395.738 416.144 347.552 401.567 327.72C396.937 321.426 394.16 315.157 390.118 310.777C390.105 310.765 390.105 310.752 390.093 310.752L380.258 294.649L379.657 293.66L378.982 293.322L360.989 372.753Z" fill="#3F3D56"/>
<path d="M314.295 253.585C334.312 253.585 350.539 237.358 350.539 217.341C350.539 197.324 334.312 181.097 314.295 181.097C294.278 181.097 278.052 197.324 278.052 217.341C278.052 237.358 294.278 253.585 314.295 253.585Z" fill="#FFB6B6"/>
<path d="M363.283 192.025C363.002 191.725 362.663 191.484 362.287 191.318C361.912 191.152 361.506 191.063 361.095 191.057L361.64 189.544C361.818 189.068 361.866 188.552 361.779 188.051C361.692 187.55 361.474 187.081 361.146 186.692C360.818 186.303 360.393 186.008 359.914 185.837C359.435 185.667 358.919 185.627 358.419 185.721L356.434 186.103L356.621 184.778C356.693 184.284 356.635 183.78 356.453 183.315C356.271 182.851 355.971 182.442 355.583 182.128C355.194 181.815 354.731 181.607 354.239 181.527C353.746 181.447 353.241 181.496 352.774 181.67C352.348 181.838 351.891 181.908 351.435 181.876C350.979 181.843 350.536 181.709 350.138 181.483C349.739 181.264 349.393 180.961 349.123 180.594C348.853 180.228 348.667 179.807 348.577 179.36L347.885 176.025L347.812 175.846C344.445 170.234 337.97 166.151 330.047 164.654C322.995 163.312 315.764 163.995 308.793 164.638C306.028 164.898 302.904 165.191 300.301 166.785C298.089 168.152 296.218 170.885 296.6 173.642C289.727 171.535 282.358 175.741 278.706 181.044C274.378 187.356 273.671 195.262 273.557 201.444C273.248 216.069 276.265 228.034 282.504 237.014C282.96 237.665 283.073 239.023 283.976 239.479L283.789 239.178C284.798 239.682 285.823 240.496 285.44 241.366C284.342 243.871 291.639 249.41 296.779 251.241C306.158 254.584 318.627 254.299 327.396 253.095L327.705 251.021C330.869 250.59 333.098 249.768 333.724 248.483C334.83 247.54 335.774 246.694 336.595 245.913L336.603 245.905C336.62 245.888 336.652 245.864 336.668 245.848C340.63 242.049 341.549 239.886 341.964 236.591C342.362 233.362 341.655 230.084 340.931 227.131C356.174 229.49 334.928 210.896 349.13 207.301C349.293 207.25 349.458 207.21 349.626 207.179C350.041 207.081 350.456 206.983 350.854 206.87C352.775 206.348 354.615 205.562 356.32 204.535C360.29 202.119 361.599 198.915 363.649 195.303C363.945 194.789 364.069 194.194 364.003 193.604C363.937 193.015 363.685 192.461 363.283 192.025Z" fill="#0F172A"/>
<path d="M442.484 375.333C442.475 376.757 442.459 378.749 442.394 381.214C442.386 381.556 442.378 381.905 442.37 382.263C442.264 386.794 442.158 390.592 441.987 394.814C441.979 395.107 441.971 395.391 441.955 395.684C441.727 401.573 441.369 408.43 440.751 419.289C439.604 439.348 437.603 422.047 435.594 429.083C435.496 429.432 435.391 429.847 435.293 430.335C434.989 432.106 434.476 433.834 433.764 435.484C432.698 436.118 431.6 436.729 430.518 437.339C427.436 439.055 424.304 440.706 421.148 442.276C419.375 443.154 417.594 444.017 415.804 444.846C415.519 444.976 415.243 445.107 414.966 445.229C405.803 449.467 396.359 453.071 386.701 456.014C384.814 456.584 382.935 457.137 381.031 457.649C379.047 458.202 377.062 458.723 375.053 459.211C360.107 462.88 344.813 464.95 329.429 465.385C327.355 465.45 325.264 465.474 323.166 465.474C322.125 465.474 321.1 465.466 320.059 465.458C319.741 465.458 319.424 465.45 319.107 465.442C318.188 465.417 317.236 465.401 316.276 465.376C297.714 464.798 279.302 461.837 261.494 456.567L260.737 456.348C259.566 455.99 258.403 455.64 257.24 455.266C251.871 453.566 246.581 451.663 241.37 449.556C237.393 447.953 233.461 446.234 229.576 444.399C229.541 444.389 229.507 444.373 229.478 444.35C228.665 443.976 227.843 443.586 227.03 443.187C226.924 443.13 226.81 443.073 226.697 443.016C223.663 441.536 220.661 439.985 217.692 438.363C215.195 432.629 211.681 431.531 209.501 426.488C208.867 424.99 208.408 423.423 208.135 421.819C208.135 421.803 208.127 421.786 208.127 421.762C208.354 424.788 207.159 416.394 208.118 421.729C208.11 421.632 208.102 421.526 208.094 421.404C208.07 421.111 208.037 420.753 207.988 420.306C205.198 393.065 205.377 361.912 204.165 336.241C204.084 334.582 204 332.993 203.913 331.474C203.889 330.97 203.856 330.474 203.824 329.986C203.881 329.84 203.946 329.685 204.019 329.539C204.035 329.496 204.054 329.456 204.076 329.417C204.1 329.366 204.127 329.317 204.157 329.27C204.173 329.246 204.198 329.213 204.214 329.189C204.226 329.161 204.24 329.134 204.255 329.107C204.328 328.994 204.409 328.872 204.499 328.758C204.54 328.709 204.572 328.668 204.613 328.628C204.641 328.586 204.674 328.548 204.71 328.514C204.735 328.475 204.765 328.439 204.8 328.408C204.832 328.375 204.865 328.335 204.906 328.294C204.923 328.269 204.945 328.246 204.971 328.229C205.035 328.155 205.106 328.087 205.182 328.026C205.472 327.759 205.782 327.514 206.109 327.294C206.223 327.22 206.345 327.147 206.459 327.066C207.279 326.576 208.142 326.162 209.038 325.829C209.347 325.716 209.656 325.61 209.989 325.496C210.111 325.463 210.225 325.423 210.347 325.382C210.526 325.325 210.705 325.268 210.892 325.228C211.819 324.951 212.82 324.715 213.902 324.495C214.032 324.471 214.17 324.447 214.308 324.414C214.504 324.374 214.707 324.341 214.91 324.308C215.187 324.26 215.472 324.211 215.756 324.162C218.172 323.78 220.913 323.495 223.939 323.308C224.224 323.292 224.509 323.275 224.793 323.259C225.127 323.243 225.46 323.227 225.802 323.21C226.087 323.194 226.379 323.186 226.672 323.178C226.957 323.162 227.25 323.153 227.551 323.145C228.372 323.121 229.218 323.096 230.08 323.08C232.537 323.031 235.123 323.048 237.84 323.105C239.101 323.137 240.386 323.17 241.704 323.227C241.793 323.227 241.875 323.235 241.956 323.235C243.103 323.275 244.258 323.324 245.445 323.389C246.275 323.43 247.113 323.471 247.951 323.519C248.74 323.568 249.537 323.617 250.342 323.674C250.968 323.707 251.595 323.755 252.229 323.796C252.766 323.837 253.303 323.877 253.84 323.91L254.572 323.959C254.97 323.991 255.369 324.016 255.776 324.056C256.67 324.129 257.565 324.203 258.476 324.276C259.379 324.357 260.298 324.439 261.217 324.52C262.136 324.601 263.064 324.691 263.991 324.78C264.089 324.788 264.178 324.796 264.268 324.805C265.113 324.894 265.959 324.975 266.813 325.065C267.009 325.081 267.212 325.097 267.407 325.122C268.222 325.204 269.052 325.299 269.873 325.387C270.126 325.414 270.377 325.44 270.629 325.468C271.273 325.538 271.908 325.599 272.556 325.675C273.41 325.773 274.28 325.862 275.126 325.976C275.785 326.049 276.444 326.122 277.103 326.204C278.136 326.326 279.185 326.456 280.234 326.594C280.633 326.643 281.032 326.692 281.43 326.749C284.424 327.123 287.449 327.538 290.524 327.969C295.185 328.628 299.919 329.343 304.685 330.116C309.46 330.889 314.262 331.705 319.091 332.564C320.311 332.784 321.531 333.004 322.759 333.231C323.312 333.337 323.865 333.443 324.418 333.549C325.362 333.719 326.305 333.898 327.249 334.077C328.193 334.256 329.136 334.435 330.08 334.622C331.202 334.842 332.333 335.062 333.455 335.281C340.849 336.745 348.202 338.307 355.376 339.942C356.556 340.21 357.735 340.487 358.907 340.755C361.249 341.3 363.57 341.853 365.869 342.415C366.504 342.561 367.13 342.716 367.756 342.87C369.318 343.261 370.88 343.651 372.417 344.05L372.686 344.123C373.816 344.399 374.922 344.684 376.029 344.977C378.64 345.66 381.207 346.352 383.732 347.051C385.407 347.515 387.064 347.984 388.702 348.458C391.15 349.166 393.549 349.882 395.884 350.606C396.461 350.785 397.039 350.964 397.608 351.134C399.316 351.663 401 352.2 402.635 352.737C403.936 353.16 405.205 353.591 406.458 354.022C407.711 354.453 408.939 354.884 410.143 355.315C410.915 355.592 411.68 355.885 412.445 356.161C413.543 356.568 414.625 356.975 415.682 357.381C416.007 357.503 416.325 357.633 416.642 357.755C416.845 357.845 417.04 357.918 417.236 357.999C417.618 358.154 418.008 358.3 418.382 358.455C418.765 358.601 419.139 358.756 419.513 358.919C419.879 359.065 420.253 359.22 420.611 359.374C420.977 359.52 421.335 359.675 421.693 359.838C421.994 359.96 422.287 360.09 422.571 360.22C423.149 360.472 423.727 360.724 424.288 360.985C424.564 361.115 424.841 361.237 425.117 361.367L425.752 361.66C425.841 361.709 425.931 361.749 426.02 361.79C426.224 361.888 426.435 361.993 426.638 362.091C427.11 362.31 427.574 362.546 428.029 362.766C428.639 363.075 429.233 363.384 429.803 363.685C430.38 363.994 430.941 364.303 431.478 364.604C431.568 364.653 431.649 364.702 431.739 364.751C431.861 364.816 431.983 364.889 432.105 364.954C432.519 365.19 432.918 365.434 433.317 365.67C434.097 366.15 434.838 366.621 435.529 367.093C435.683 367.199 435.83 367.305 435.984 367.402C436.497 367.768 436.985 368.126 437.44 368.492C437.44 368.5 437.44 368.5 437.449 368.5C437.603 368.614 437.75 368.736 437.896 368.85C438.018 368.964 438.148 369.062 438.27 369.176C438.693 369.542 439.084 369.891 439.441 370.249C439.561 370.36 439.675 370.476 439.783 370.599C439.83 370.638 439.874 370.682 439.913 370.729C440.076 370.892 440.222 371.054 440.361 371.217C440.382 371.24 440.401 371.264 440.417 371.29C440.613 371.518 440.792 371.746 440.963 371.974C441.044 372.088 441.133 372.201 441.207 372.315C441.304 372.454 441.402 372.6 441.483 372.738C441.556 372.852 441.621 372.974 441.686 373.088C441.859 373.381 442.006 373.689 442.126 374.007C442.217 374.223 442.291 374.446 442.345 374.674C442.407 374.89 442.453 375.11 442.484 375.333Z" fill="#0F172A"/>
<path opacity="0.2" d="M442.484 375.333C442.476 376.757 442.459 378.749 442.394 381.214C442.386 381.556 442.37 381.905 442.362 382.263C442.28 385.72 442.158 389.991 441.988 394.814C441.979 395.107 441.971 395.391 441.955 395.684C441.727 401.573 441.369 408.43 440.751 419.289C439.604 439.348 437.603 422.047 435.594 429.083C430.014 425.65 423.898 422.055 417.358 418.362C416.178 417.695 414.988 417.025 413.787 416.353C400.707 409.057 386.099 401.411 370.848 393.838C370.246 393.537 369.636 393.236 369.034 392.943C334.098 375.675 295.966 358.878 265.073 347.669C259.111 345.506 253.417 343.553 248.065 341.837C236.791 338.234 227.046 335.712 219.547 334.622C211.738 333.484 206.345 333.89 204.165 336.241C204.084 334.582 204 332.993 203.913 331.474C203.881 330.97 203.848 330.474 203.816 329.986C203.866 329.852 203.931 329.724 203.994 329.595C204.003 329.577 204.01 329.557 204.019 329.539C204.035 329.496 204.054 329.456 204.076 329.417C204.1 329.366 204.127 329.317 204.157 329.27C204.184 329.212 204.216 329.158 204.255 329.107C204.328 328.994 204.409 328.872 204.499 328.758C204.565 328.672 204.635 328.591 204.71 328.514C204.735 328.475 204.765 328.439 204.8 328.408C204.832 328.375 204.865 328.335 204.906 328.294C204.923 328.268 204.945 328.246 204.971 328.229C205.035 328.155 205.106 328.087 205.182 328.026C205.472 327.759 205.782 327.514 206.109 327.294C206.223 327.22 206.345 327.147 206.459 327.066C207.279 326.575 208.142 326.162 209.038 325.829C209.347 325.716 209.656 325.61 209.989 325.496C210.111 325.463 210.225 325.423 210.347 325.382C210.526 325.325 210.705 325.268 210.892 325.228C211.82 324.951 212.82 324.715 213.902 324.495C214.227 324.43 214.569 324.365 214.91 324.308C215.187 324.26 215.472 324.211 215.756 324.162C218.172 323.78 220.913 323.495 223.939 323.308C224.224 323.292 224.509 323.275 224.793 323.259C225.127 323.243 225.46 323.227 225.802 323.21C226.087 323.194 226.379 323.186 226.672 323.178C226.957 323.161 227.25 323.153 227.551 323.145C228.372 323.121 229.218 323.096 230.08 323.08C232.537 323.039 235.123 323.056 237.84 323.113C239.101 323.137 240.386 323.178 241.704 323.235C241.785 323.235 241.875 323.243 241.956 323.243C243.103 323.275 244.266 323.332 245.446 323.389C246.275 323.43 247.113 323.471 247.951 323.519C248.74 323.568 249.537 323.617 250.342 323.674C250.969 323.706 251.595 323.755 252.229 323.796C252.766 323.837 253.303 323.877 253.84 323.91C254.482 323.959 255.125 324.007 255.776 324.056C256.67 324.129 257.565 324.203 258.476 324.276C259.379 324.357 260.298 324.438 261.217 324.52C262.136 324.601 263.064 324.691 263.991 324.78C264.089 324.788 264.178 324.796 264.268 324.805C265.114 324.894 265.959 324.975 266.814 325.065C271.548 325.545 276.42 326.106 281.43 326.749C284.424 327.131 287.455 327.54 290.524 327.977C295.185 328.636 299.919 329.351 304.685 330.116C309.46 330.889 314.262 331.705 319.091 332.564C320.311 332.784 321.531 333.004 322.759 333.231C324.256 333.508 325.753 333.79 327.249 334.077C328.193 334.256 329.136 334.435 330.08 334.622C331.202 334.842 332.333 335.062 333.455 335.281C340.849 336.745 348.202 338.307 355.377 339.942C356.556 340.21 357.735 340.487 358.907 340.755C361.249 341.3 363.57 341.853 365.869 342.415C366.504 342.569 367.13 342.724 367.757 342.878C369.326 343.269 370.88 343.659 372.417 344.05V344.058C372.507 344.074 372.596 344.098 372.686 344.123C373.808 344.408 374.923 344.692 376.029 344.985C378.64 345.668 381.208 346.357 383.732 347.051C385.407 347.523 387.067 347.986 388.702 348.458C391.15 349.174 393.55 349.89 395.884 350.606C396.462 350.785 397.039 350.964 397.608 351.134C399.317 351.671 400.992 352.205 402.635 352.737C403.937 353.16 405.206 353.591 406.458 354.022C407.711 354.453 408.939 354.884 410.143 355.315C410.924 355.592 411.688 355.876 412.445 356.153C413.551 356.56 414.625 356.966 415.682 357.381C416.007 357.503 416.325 357.633 416.642 357.755C417.236 357.983 417.813 358.219 418.383 358.455C418.765 358.601 419.139 358.756 419.513 358.919C419.879 359.065 420.253 359.22 420.611 359.374C420.977 359.521 421.335 359.675 421.693 359.838C421.994 359.96 422.287 360.09 422.572 360.22C423.149 360.472 423.727 360.724 424.288 360.985C424.564 361.115 424.841 361.237 425.118 361.367L425.752 361.66C425.842 361.709 425.931 361.749 426.02 361.79C426.712 362.115 427.379 362.441 428.03 362.766C428.64 363.075 429.233 363.384 429.803 363.685C430.478 364.043 431.12 364.393 431.739 364.751C431.861 364.816 431.983 364.889 432.105 364.954C432.52 365.19 432.918 365.434 433.317 365.67C434.098 366.15 434.838 366.621 435.529 367.093C436.212 367.565 436.847 368.029 437.441 368.492C437.441 368.5 437.441 368.5 437.449 368.5C437.733 368.728 438.01 368.956 438.27 369.176C438.693 369.542 439.084 369.891 439.442 370.249C439.562 370.36 439.676 370.476 439.783 370.599C439.831 370.638 439.874 370.682 439.913 370.729C440.084 370.916 440.255 371.103 440.418 371.29C440.613 371.518 440.792 371.746 440.963 371.974C441.044 372.087 441.133 372.201 441.207 372.315C441.304 372.454 441.402 372.6 441.483 372.738C441.556 372.852 441.622 372.974 441.687 373.088C441.859 373.381 442.006 373.689 442.126 374.007C442.215 374.224 442.288 374.447 442.345 374.674C442.407 374.89 442.453 375.11 442.484 375.333Z" fill="#1E293B"/>
<path d="M90.731 158.823C90.2958 158.61 90.2958 158.266 90.731 158.054L93.2685 156.816C93.7037 156.604 94.4093 156.604 94.8445 156.816L97.2905 158.009C97.7258 158.222 97.7258 158.566 97.2905 158.778L94.7531 160.016C94.3179 160.228 93.6123 160.228 93.1771 160.016L90.731 158.823Z" fill="#FFD166"/>
<path d="M90.731 156.954C90.2958 156.741 90.2958 156.397 90.731 156.185L93.2685 154.947C93.7037 154.735 94.4093 154.735 94.8445 154.947L97.2905 156.14C97.7258 156.353 97.7258 156.697 97.2905 156.909L94.7531 158.147C94.3179 158.359 93.6123 158.359 93.1771 158.147L90.731 156.954Z" fill="#22C55E"/>
<path d="M90.731 155.084C90.2958 154.872 90.2958 154.528 90.731 154.316L93.2685 153.078C93.7037 152.866 94.4093 152.866 94.8445 153.078L97.2905 154.271C97.7258 154.483 97.7258 154.828 97.2905 155.04L94.7531 156.278C94.3179 156.49 93.6123 156.49 93.1771 156.278L90.731 155.084Z" fill="#38BDF8"/>
<path d="M90.4725 162C90.1093 162 89.7938 161.918 89.5259 161.753C89.2618 161.592 89.0472 161.387 88.8821 161.14C88.706 160.881 88.5776 160.597 88.4969 160.286C88.4198 159.978 88.3813 159.677 88.3813 159.381V158.464C88.3813 157.966 88.2676 157.608 88.0401 157.391C87.8126 157.174 87.4659 157.065 87 157.065V155.941C87.4659 155.941 87.8126 155.832 88.0401 155.615C88.2676 155.397 88.3813 155.036 88.3813 154.53V153.614C88.3813 153.295 88.4253 152.967 88.5134 152.63C88.6014 152.289 88.7408 151.993 88.9316 151.742C89.0894 151.525 89.2966 151.347 89.5535 151.208C89.8103 151.069 90.1166 151 90.4725 151L90.6596 151.882C90.4358 151.875 90.2634 151.924 90.1423 152.029C90.0212 152.13 89.9332 152.265 89.8781 152.433C89.8231 152.602 89.7901 152.791 89.7791 153.001C89.7718 153.207 89.7681 153.411 89.7681 153.614V154.53C89.7681 154.976 89.6599 155.371 89.4434 155.716C89.2306 156.061 88.8986 156.323 88.4473 156.503C88.9023 156.683 89.2361 156.943 89.4489 157.284C89.6617 157.625 89.7681 158.019 89.7681 158.464V159.381C89.7681 159.583 89.7791 159.787 89.8011 159.993C89.8268 160.203 89.8726 160.392 89.9387 160.561C90.0047 160.73 90.0946 160.865 90.2083 160.966C90.3257 161.071 90.4762 161.119 90.6596 161.112L90.4725 162Z" fill="#0F172A"/>
<path d="M97.3404 161.112C97.5202 161.119 97.6669 161.071 97.7807 160.966C97.8981 160.865 97.9898 160.73 98.0558 160.561C98.1219 160.392 98.1677 160.203 98.1934 159.993C98.2191 159.787 98.2319 159.583 98.2319 159.381V158.464C98.2319 158.247 98.2558 158.041 98.3035 157.846C98.3548 157.651 98.4319 157.47 98.5346 157.301C98.6373 157.132 98.7657 156.982 98.9198 156.851C99.0776 156.716 99.2647 156.602 99.4811 156.508C99.305 156.433 99.1491 156.344 99.0134 156.239C98.8776 156.134 98.7602 156.018 98.6612 155.89C98.5144 155.703 98.4062 155.495 98.3365 155.266C98.2668 155.034 98.2319 154.788 98.2319 154.53V153.614C98.2319 153.411 98.2264 153.207 98.2154 153.001C98.2081 152.791 98.1769 152.602 98.1219 152.433C98.0668 152.265 97.9788 152.13 97.8577 152.029C97.7366 151.924 97.5642 151.875 97.3404 151.882L97.5275 151C97.9201 151 98.2503 151.082 98.5181 151.247C98.7859 151.408 99.0042 151.626 99.173 151.899C99.3344 152.147 99.4481 152.424 99.5142 152.731C99.5839 153.035 99.6187 153.329 99.6187 153.614V154.53C99.6187 154.74 99.6371 154.925 99.6737 155.086C99.7141 155.247 99.7746 155.384 99.8553 155.497C99.9617 155.65 100.11 155.763 100.301 155.834C100.496 155.905 100.729 155.941 101 155.941V157.065C100.695 157.065 100.442 157.11 100.241 157.2C100.039 157.286 99.8865 157.427 99.7838 157.621C99.7288 157.726 99.6866 157.85 99.6572 157.992C99.6316 158.131 99.6187 158.288 99.6187 158.464V159.381C99.6187 159.673 99.5765 159.976 99.4921 160.291C99.4078 160.606 99.283 160.887 99.1179 161.134C98.9528 161.393 98.7364 161.601 98.4686 161.758C98.2044 161.919 97.8907 162 97.5275 162L97.3404 161.112Z" fill="#0F172A"/>
</g>
<defs>
<clipPath id="clip0_19_392">
<rect width="640" height="465.475" fill="white"/>
</clipPath>
</defs>
</svg>
