<svg width="265" height="70" viewBox="0 0 265 70" fill="none" xmlns="http://www.w3.org/2000/svg">
<path d="M24.2496 49.7812C21.421 48.4302 21.421 46.2397 24.2496 44.8886L40.7417 37.0115C43.5703 35.6604 48.1564 35.6604 50.9851 37.0115L66.883 44.6049C69.7116 45.9559 69.7116 48.1464 66.883 49.4974L50.3909 57.3746C47.5623 58.7256 42.9762 58.7256 40.1476 57.3746L24.2496 49.7812Z" fill="#FFD166"/>
<path d="M24.2496 37.8867C21.421 36.5356 21.421 34.3452 24.2496 32.9941L40.7417 25.117C43.5703 23.7659 48.1564 23.7659 50.9851 25.117L66.883 32.7103C69.7116 34.0614 69.7116 36.2519 66.883 37.6029L50.3909 45.4801C47.5623 46.8311 42.9762 46.8311 40.1476 45.4801L24.2496 37.8867Z" fill="#22C55E"/>
<path d="M24.2496 25.9922C21.421 24.6411 21.421 22.4506 24.2496 21.0996L40.7417 13.2224C43.5703 11.8714 48.1564 11.8714 50.9851 13.2224L66.883 20.8158C69.7116 22.1669 69.7116 24.3574 66.883 25.7084L50.3909 33.5855C47.5623 34.9366 42.9762 34.9366 40.1476 33.5855L24.2496 25.9922Z" fill="#38BDF8"/>
<path d="M22.5693 70C20.2086 70 18.158 69.4754 16.4173 68.4262C14.7004 67.4008 13.3055 66.1012 12.2325 64.5273C11.0879 62.882 10.2533 61.0697 9.72875 59.0904C9.22801 57.1351 8.97764 55.2155 8.97764 53.3316V47.5013C8.97764 44.3298 8.23844 42.0525 6.76005 40.6694C5.28166 39.2863 3.02831 38.5948 0 38.5948V31.441C3.02831 31.441 5.28166 30.7494 6.76005 29.3664C8.23844 27.9833 8.97764 25.6822 8.97764 22.463V16.6326C8.97764 14.6057 9.26378 12.5192 9.83606 10.373C10.4083 8.20303 11.3144 6.3192 12.5544 4.72151C13.5797 3.33844 14.927 2.20576 16.5961 1.32345C18.2653 0.441151 20.2563 0 22.5693 0L23.7854 5.61574C22.3308 5.56805 21.2101 5.87804 20.4232 6.54573C19.6363 7.18958 19.0641 8.04803 18.7064 9.1211C18.3487 10.1942 18.1341 11.3984 18.0626 12.7338C18.0149 14.0453 17.991 15.3449 17.991 16.6326V22.463C17.991 25.3006 17.2876 27.8164 15.8808 30.0102C14.4978 32.2041 12.3398 33.8733 9.40685 35.0179C12.3636 36.1625 14.5335 37.8198 15.9165 39.9898C17.2995 42.1598 17.991 44.6636 17.991 47.5013V53.3316C17.991 54.6193 18.0626 55.9189 18.2056 57.2305C18.3726 58.5658 18.6706 59.7701 19.0998 60.8431C19.529 61.9162 20.1132 62.7747 20.8524 63.4185C21.6155 64.0862 22.5931 64.3962 23.7854 64.3485L22.5693 70Z" fill="#0F172A"/>
<path d="M67.2071 64.3485C68.3755 64.3962 69.3293 64.0862 70.0685 63.4185C70.8315 62.7747 71.4277 61.9162 71.8569 60.8431C72.2861 59.7701 72.5841 58.5658 72.7511 57.2305C72.918 55.9189 73.0014 54.6193 73.0014 53.3316V47.5013C73.0014 46.1182 73.1564 44.8067 73.4664 43.5667C73.8002 42.3267 74.301 41.1702 74.9686 40.0971C75.6363 39.024 76.4709 38.0702 77.4724 37.2356C78.4977 36.3771 79.7138 35.6498 81.1206 35.0537C79.9761 34.5767 78.9627 34.0044 78.0804 33.3367C77.1981 32.6691 76.4351 31.9298 75.7913 31.1191C74.8375 29.9268 74.1341 28.6033 73.681 27.1487C73.228 25.6702 73.0014 24.1083 73.0014 22.463V16.6326C73.0014 15.3449 72.9657 14.0453 72.8941 12.7338C72.8464 11.3984 72.6438 10.1942 72.2861 9.1211C71.9284 8.04803 71.3561 7.18958 70.5692 6.54573C69.7824 5.87804 68.6616 5.56805 67.2071 5.61574L68.4232 0C70.9746 0 73.1207 0.524612 74.8613 1.57384C76.602 2.59922 78.0208 3.98229 79.1177 5.72305C80.1668 7.29688 80.906 9.06149 81.3353 11.0169C81.7883 12.9484 82.0148 14.8203 82.0148 16.6326V22.463C82.0148 23.7983 82.1341 24.9787 82.3725 26.0041C82.6348 27.0295 83.0282 27.8998 83.5528 28.6152C84.2443 29.5929 85.2101 30.3083 86.45 30.7614C87.7138 31.2144 89.2279 31.441 90.9925 31.441V38.5948C89.0133 38.5948 87.368 38.8809 86.0566 39.4532C84.7451 40.0017 83.7555 40.8959 83.0879 42.1359C82.7302 42.8036 82.456 43.5905 82.2652 44.4967C82.0983 45.379 82.0148 46.3805 82.0148 47.5013V53.3316C82.0148 55.1916 81.7406 57.1231 81.1922 59.1262C80.6437 61.1293 79.833 62.9177 78.76 64.4916C77.687 66.1369 76.2801 67.4604 74.5394 68.4619C72.8226 69.4873 70.7838 70 68.4232 70L67.2071 64.3485Z" fill="#0F172A"/>
<path d="M110.187 5.02865V28.9968H105.38V5.02865H110.187Z" fill="#0F172A"/>
<path d="M125.478 9.69865C127.744 9.69865 129.575 10.4198 130.971 11.862C132.368 13.2813 133.066 15.2729 133.066 17.8368V28.9968H128.259V18.4893C128.259 16.9784 127.881 15.8223 127.126 15.0211C126.37 14.197 125.34 13.7849 124.035 13.7849C122.708 13.7849 121.655 14.197 120.876 15.0211C120.121 15.8223 119.743 16.9784 119.743 18.4893V28.9968H114.936V9.97336H119.743V12.3427C120.384 11.5186 121.197 10.8776 122.181 10.4198C123.188 9.93902 124.287 9.69865 125.478 9.69865Z" fill="#0F172A"/>
<path d="M144.917 29.3058C143.36 29.3058 141.964 29.0311 140.728 28.4817C139.492 27.9094 138.507 27.1425 137.775 26.181C137.065 25.2196 136.676 24.1551 136.607 22.9876H141.449C141.54 23.7201 141.895 24.3268 142.513 24.8075C143.154 25.2882 143.944 25.5286 144.882 25.5286C145.798 25.5286 146.508 25.3455 147.011 24.9792C147.538 24.6129 147.801 24.1436 147.801 23.5713C147.801 22.9532 147.481 22.4954 146.84 22.1978C146.222 21.8773 145.226 21.5339 143.852 21.1676C142.433 20.8243 141.266 20.4694 140.35 20.1032C139.457 19.7369 138.679 19.176 138.015 18.4206C137.374 17.6651 137.054 16.6464 137.054 15.3645C137.054 14.3114 137.351 13.35 137.946 12.4801C138.564 11.6102 139.434 10.9234 140.556 10.4198C141.701 9.91613 143.04 9.66432 144.573 9.66432C146.84 9.66432 148.648 10.2366 149.999 11.3812C151.349 12.5029 152.093 14.0253 152.231 15.9482H147.629C147.561 15.1928 147.24 14.5976 146.668 14.1626C146.119 13.7048 145.375 13.4759 144.436 13.4759C143.566 13.4759 142.891 13.6361 142.41 13.9566C141.952 14.2771 141.723 14.7235 141.723 15.2958C141.723 15.9368 142.044 16.429 142.685 16.7723C143.326 17.0928 144.322 17.4248 145.672 17.7681C147.046 18.1115 148.179 18.4664 149.072 18.8326C149.964 19.1989 150.731 19.7712 151.372 20.5495C152.036 21.305 152.379 22.3122 152.402 23.5713C152.402 24.6701 152.093 25.6545 151.475 26.5244C150.88 27.3943 150.01 28.0811 148.866 28.5847C147.744 29.0654 146.428 29.3058 144.917 29.3058Z" fill="#0F172A"/>
<path d="M158.786 7.70704C157.939 7.70704 157.23 7.44377 156.657 6.91725C156.108 6.36784 155.833 5.69252 155.833 4.8913C155.833 4.09007 156.108 3.42619 156.657 2.89967C157.23 2.35026 157.939 2.07556 158.786 2.07556C159.633 2.07556 160.331 2.35026 160.881 2.89967C161.453 3.42619 161.739 4.09007 161.739 4.8913C161.739 5.69252 161.453 6.36784 160.881 6.91725C160.331 7.44377 159.633 7.70704 158.786 7.70704ZM161.155 9.97336V28.9968H156.348V9.97336H161.155Z" fill="#0F172A"/>
<path d="M164.669 19.4164C164.669 17.4934 165.046 15.788 165.802 14.3C166.58 12.812 167.633 11.6674 168.961 10.8662C170.289 10.0649 171.765 9.66432 173.39 9.66432C174.626 9.66432 175.805 9.93902 176.927 10.4884C178.049 11.015 178.941 11.7246 179.605 12.6174V3.58644H184.481V28.9968H179.605V26.181C179.01 27.1196 178.175 27.875 177.099 28.4473C176.023 29.0197 174.775 29.3058 173.356 29.3058C171.754 29.3058 170.289 28.8937 168.961 28.0696C167.633 27.2455 166.58 26.0895 165.802 24.6015C165.046 23.0906 164.669 21.3622 164.669 19.4164ZM179.64 19.4851C179.64 18.3176 179.411 17.3218 178.953 16.4976C178.495 15.6506 177.877 15.0096 177.099 14.5747C176.32 14.1168 175.485 13.8879 174.592 13.8879C173.699 13.8879 172.875 14.1054 172.12 14.5404C171.364 14.9753 170.746 15.6163 170.266 16.4633C169.808 17.2874 169.579 18.2718 169.579 19.4164C169.579 20.561 169.808 21.5682 170.266 22.4382C170.746 23.2852 171.364 23.9376 172.12 24.3954C172.898 24.8533 173.722 25.0822 174.592 25.0822C175.485 25.0822 176.32 24.8647 177.099 24.4298C177.877 23.9719 178.495 23.3309 178.953 22.5068C179.411 21.6598 179.64 20.6526 179.64 19.4851Z" fill="#0F172A"/>
<path d="M206.86 19.073C206.86 19.7598 206.814 20.3779 206.722 20.9273H192.816C192.93 22.3008 193.411 23.3767 194.258 24.1551C195.105 24.9334 196.146 25.3226 197.383 25.3226C199.168 25.3226 200.439 24.5557 201.194 23.0219H206.379C205.829 24.8533 204.776 26.3642 203.22 27.5546C201.663 28.7221 199.752 29.3058 197.486 29.3058C195.654 29.3058 194.006 28.9052 192.541 28.104C191.099 27.2798 189.966 26.1238 189.142 24.6358C188.341 23.1478 187.94 21.4309 187.94 19.4851C187.94 17.5163 188.341 15.788 189.142 14.3C189.943 12.812 191.065 11.6674 192.507 10.8662C193.949 10.0649 195.609 9.66432 197.486 9.66432C199.294 9.66432 200.908 10.0535 202.327 10.8318C203.769 11.6102 204.879 12.7204 205.658 14.1626C206.459 15.5819 206.86 17.2187 206.86 19.073ZM201.881 17.6995C201.858 16.4633 201.411 15.4789 200.542 14.7464C199.672 13.9909 198.607 13.6132 197.348 13.6132C196.158 13.6132 195.151 13.9795 194.327 14.712C193.525 15.4217 193.033 16.4175 192.85 17.6995H201.881Z" fill="#0F172A"/>
<path d="M109.466 47.093V58.1843C109.466 59.1 109.66 59.7524 110.049 60.1416C110.439 60.5079 111.114 60.691 112.075 60.691H114.376V63.335H111.56C109.82 63.335 108.516 62.9344 107.646 62.1332C106.776 61.332 106.341 60.0157 106.341 58.1843V47.093H103.903V44.5177H106.341V39.779H109.466V44.5177H114.376V47.093H109.466Z" fill="#0F172A"/>
<path d="M127.501 44.1743C128.921 44.1743 130.202 44.4833 131.347 45.1014C132.492 45.6966 133.384 46.6009 134.025 47.8141C134.689 49.0274 135.021 50.504 135.021 52.2438V63.335H131.931V52.6902C131.931 50.813 131.461 49.3823 130.523 48.3979C129.584 47.3906 128.303 46.887 126.677 46.887C125.029 46.887 123.713 47.4021 122.729 48.4322C121.767 49.4624 121.286 50.9618 121.286 52.9305V63.335H118.162V37.9247H121.286V47.196C121.904 46.2346 122.751 45.4906 123.827 44.9641C124.926 44.4375 126.151 44.1743 127.501 44.1743Z" fill="#0F172A"/>
<path d="M157.294 53.2052C157.294 53.8004 157.259 54.43 157.191 55.0939H142.151C142.266 56.9481 142.895 58.4018 144.04 59.4548C145.207 60.485 146.615 61 148.263 61C149.614 61 150.735 60.691 151.628 60.0729C152.544 59.4319 153.185 58.5849 153.551 57.5319H156.916C156.412 59.3404 155.405 60.8169 153.894 61.9615C152.383 63.0832 150.506 63.6441 148.263 63.6441C146.477 63.6441 144.875 63.2435 143.456 62.4422C142.059 61.641 140.961 60.5079 140.16 59.0428C139.358 57.5548 138.958 55.8378 138.958 53.892C138.958 51.9462 139.347 50.2407 140.125 48.7756C140.903 47.3105 141.991 46.1888 143.387 45.4105C144.806 44.6092 146.432 44.2086 148.263 44.2086C150.049 44.2086 151.628 44.5978 153.001 45.3761C154.375 46.1545 155.428 47.2304 156.16 48.6039C156.916 49.9546 157.294 51.4883 157.294 53.2052ZM154.066 52.5528C154.066 51.3624 153.803 50.3437 153.276 49.4967C152.75 48.6268 152.029 47.9744 151.113 47.5394C150.22 47.0816 149.224 46.8527 148.126 46.8527C146.546 46.8527 145.196 47.3563 144.074 48.3635C142.975 49.3708 142.346 50.7672 142.185 52.5528H154.066Z" fill="#0F172A"/>
<path d="M177.6 63.5754C175.929 63.5754 174.418 63.2893 173.068 62.7169C171.74 62.1446 170.687 61.3205 169.909 60.2446C169.131 59.1687 168.73 57.8981 168.707 56.433H173.858C173.926 57.4174 174.27 58.1957 174.888 58.768C175.529 59.3404 176.399 59.6265 177.497 59.6265C178.619 59.6265 179.5 59.3632 180.141 58.8367C180.782 58.2873 181.103 57.5777 181.103 56.7078C181.103 55.9981 180.885 55.4143 180.45 54.9565C180.015 54.4987 179.466 54.1438 178.802 53.892C178.161 53.6173 177.268 53.3197 176.124 52.9992C174.567 52.5414 173.297 52.095 172.312 51.66C171.351 51.2022 170.515 50.5269 169.806 49.6341C169.119 48.7184 168.776 47.5051 168.776 45.9942C168.776 44.5749 169.131 43.3387 169.84 42.2857C170.55 41.2326 171.546 40.4314 172.827 39.882C174.109 39.3097 175.574 39.0235 177.223 39.0235C179.695 39.0235 181.698 39.6302 183.232 40.8435C184.788 42.0339 185.647 43.705 185.807 45.8569H180.519C180.473 45.0327 180.118 44.3574 179.454 43.8309C178.814 43.2815 177.955 43.0068 176.879 43.0068C175.941 43.0068 175.185 43.2471 174.613 43.7279C174.064 44.2086 173.789 44.9068 173.789 45.8225C173.789 46.4635 173.995 47.0015 174.407 47.4364C174.842 47.8485 175.368 48.1919 175.986 48.4666C176.627 48.7184 177.52 49.016 178.665 49.3594C180.221 49.8172 181.492 50.275 182.476 50.7329C183.46 51.1907 184.307 51.8775 185.017 52.7932C185.727 53.7089 186.081 54.9107 186.081 56.3987C186.081 57.6807 185.75 58.8711 185.086 59.9699C184.422 61.0687 183.449 61.9501 182.167 62.6139C180.885 63.2549 179.363 63.5754 177.6 63.5754Z" fill="#0F172A"/>
<path d="M195.846 48.2605V57.4632C195.846 58.1042 195.995 58.5735 196.292 58.8711C196.613 59.1458 197.139 59.2831 197.872 59.2831H200.104V63.335H197.082C193.03 63.335 191.005 61.3663 191.005 57.4289V48.2605H188.738V44.3116H191.005V39.6073H195.846V44.3116H200.104V48.2605H195.846Z" fill="#0F172A"/>
<path d="M202.325 53.7547C202.325 51.8317 202.703 50.1262 203.458 48.6383C204.237 47.1503 205.278 46.0057 206.583 45.2044C207.911 44.4032 209.387 44.0026 211.012 44.0026C212.432 44.0026 213.668 44.2887 214.721 44.861C215.797 45.4333 216.655 46.1545 217.296 47.0244V44.3116H222.138V63.335H217.296V60.5536C216.678 61.4464 215.82 62.1904 214.721 62.7856C213.645 63.3579 212.397 63.6441 210.978 63.6441C209.376 63.6441 207.911 63.232 206.583 62.4079C205.278 61.5838 204.237 60.4277 203.458 58.9397C202.703 57.4289 202.325 55.7005 202.325 53.7547ZM217.296 53.8233C217.296 52.6558 217.067 51.66 216.609 50.8359C216.151 49.9889 215.533 49.3479 214.755 48.913C213.977 48.4551 213.141 48.2262 212.249 48.2262C211.356 48.2262 210.532 48.4437 209.776 48.8786C209.021 49.3136 208.403 49.9546 207.922 50.8016C207.464 51.6257 207.235 52.6101 207.235 53.7547C207.235 54.8993 207.464 55.9065 207.922 56.7764C208.403 57.6234 209.021 58.2759 209.776 58.7337C210.555 59.1916 211.379 59.4205 212.249 59.4205C213.141 59.4205 213.977 59.203 214.755 58.768C215.533 58.3102 216.151 57.6692 216.609 56.8451C217.067 55.9981 217.296 54.9908 217.296 53.8233Z" fill="#0F172A"/>
<path d="M225.596 53.8233C225.596 51.8546 225.997 50.1377 226.798 48.6726C227.599 47.1846 228.71 46.04 230.129 45.2388C231.548 44.4146 233.173 44.0026 235.005 44.0026C237.362 44.0026 239.308 44.5978 240.842 45.7882C242.399 46.9557 243.44 48.6039 243.967 50.7329H238.782C238.507 49.9088 238.038 49.2678 237.374 48.8099C236.733 48.3292 235.932 48.0888 234.97 48.0888C233.597 48.0888 232.51 48.5925 231.708 49.5997C230.907 50.5841 230.507 51.992 230.507 53.8233C230.507 55.6318 230.907 57.0397 231.708 58.0469C232.51 59.0313 233.597 59.5235 234.97 59.5235C236.916 59.5235 238.187 58.6536 238.782 56.9138H243.967C243.44 58.9741 242.399 60.6109 240.842 61.8242C239.285 63.0374 237.34 63.6441 235.005 63.6441C233.173 63.6441 231.548 63.2435 230.129 62.4422C228.71 61.6181 227.599 60.4735 226.798 59.0084C225.997 57.5204 225.596 55.7921 225.596 53.8233Z" fill="#0F172A"/>
<path d="M258.751 63.335L252.295 55.2312V63.335H247.488V37.9247H252.295V52.3811L258.682 44.3116H264.931L256.553 53.8577L265 63.335H258.751Z" fill="#0F172A"/>
</svg>
