<svg width="189" height="50" viewBox="0 0 189 50" fill="none" xmlns="http://www.w3.org/2000/svg">
<path d="M16.0966 50C14.4129 50 12.9504 49.6253 11.7089 48.8758C10.4845 48.1434 9.48958 47.2151 8.7243 46.091C7.90799 44.9157 7.31276 43.6212 6.93862 42.2075C6.58149 40.8108 6.40292 39.4396 6.40292 38.094V33.9295C6.40292 31.6641 5.87572 30.0375 4.82132 29.0496C3.76692 28.0617 2.15982 27.5677 0 27.5677V22.4578C2.15982 22.4578 3.76692 21.9639 4.82132 20.976C5.87572 19.9881 6.40292 18.3444 6.40292 16.045V11.8804C6.40292 10.4326 6.607 8.94226 7.01515 7.4093C7.4233 5.85931 8.06955 4.51371 8.95388 3.37251C9.68516 2.3846 10.646 1.57554 11.8365 0.945324C13.0269 0.315108 14.447 0 16.0966 0L16.9639 4.01124C15.9265 3.97718 15.1272 4.1986 14.566 4.67552C14.0048 5.13541 13.5966 5.74859 13.3415 6.51507C13.0864 7.28155 12.9334 8.14171 12.8824 9.09555C12.8484 10.0324 12.8313 10.9607 12.8313 11.8804V16.045C12.8313 18.0719 12.3297 19.8688 11.3263 21.4359C10.3399 23.0029 8.80082 24.1952 6.70903 25.0128C8.81783 25.8304 10.3654 27.0141 11.3518 28.5641C12.3382 30.1141 12.8313 31.9026 12.8313 33.9295V38.094C12.8313 39.0138 12.8824 39.9421 12.9844 40.8789C13.1035 41.8327 13.316 42.6929 13.6221 43.4594C13.9283 44.2259 14.3449 44.839 14.8721 45.2989C15.4163 45.7758 16.1136 45.9973 16.9639 45.9632L16.0966 50Z" fill="white"/>
<path d="M47.9326 45.9632C48.7659 45.9973 49.4462 45.7758 49.9734 45.2989C50.5176 44.839 50.9427 44.2259 51.2489 43.4594C51.555 42.6929 51.7676 41.8327 51.8866 40.8789C52.0056 39.9421 52.0652 39.0138 52.0652 38.094V33.9295C52.0652 32.9416 52.1757 32.0048 52.3968 31.1191C52.6349 30.2334 52.992 29.4073 53.4682 28.6408C53.9444 27.8743 54.5396 27.193 55.2539 26.5968C55.9852 25.9837 56.8525 25.4641 57.8559 25.0383C57.0395 24.6977 56.3168 24.2889 55.6875 23.812C55.0583 23.335 54.5141 22.807 54.0549 22.2279C53.3747 21.3763 52.873 20.4309 52.5499 19.3919C52.2267 18.3359 52.0652 17.2202 52.0652 16.045V11.8804C52.0652 10.9607 52.0397 10.0324 51.9886 9.09555C51.9546 8.14171 51.8101 7.28155 51.555 6.51507C51.2999 5.74859 50.8917 5.13541 50.3305 4.67552C49.7693 4.1986 48.97 3.97718 47.9326 4.01124L48.7999 0C50.6196 0 52.1502 0.374723 53.3917 1.12417C54.6331 1.85658 55.645 2.84449 56.4273 4.08789C57.1756 5.21206 57.7028 6.47249 58.0089 7.86919C58.332 9.24885 58.4936 10.5859 58.4936 11.8804V16.045C58.4936 16.9988 58.5786 17.8419 58.7487 18.5743C58.9358 19.3068 59.2164 19.9285 59.5905 20.4394C60.0837 21.1378 60.7725 21.6488 61.6568 21.9724C62.5581 22.296 63.638 22.4578 64.8965 22.4578V27.5677C63.485 27.5677 62.3115 27.7721 61.3762 28.1809C60.4408 28.5726 59.7351 29.2114 59.2589 30.0971C59.0038 30.574 58.8082 31.1361 58.6722 31.7833C58.5531 32.4136 58.4936 33.1289 58.4936 33.9295V38.094C58.4936 39.4226 58.298 40.8022 57.9069 42.233C57.5157 43.6638 56.9375 44.9412 56.1722 46.0654C55.4069 47.2407 54.4036 48.186 53.1621 48.9014C51.9376 49.6338 50.4836 50 48.7999 50L47.9326 45.9632Z" fill="white"/>
<path d="M78.586 3.59189V20.712H75.1575V3.59189H78.586Z" fill="white"/>
<path d="M89.4916 6.92761C91.1079 6.92761 92.414 7.44268 93.4099 8.47283C94.4057 9.48663 94.9037 10.9092 94.9037 12.7406V20.712H91.4752V13.2066C91.4752 12.1274 91.2058 11.3017 90.6671 10.7293C90.1283 10.1407 89.3936 9.84636 88.463 9.84636C87.5161 9.84636 86.7651 10.1407 86.21 10.7293C85.6712 11.3017 85.4019 12.1274 85.4019 13.2066V20.712H81.9734V7.12383H85.4019V8.81622C85.859 8.22756 86.4386 7.76972 87.1406 7.44268C87.859 7.0993 88.6426 6.92761 89.4916 6.92761Z" fill="white"/>
<path d="M103.356 20.9327C102.246 20.9327 101.25 20.7365 100.368 20.3441C99.4864 19.9353 98.7844 19.3875 98.262 18.7007C97.7559 18.014 97.4783 17.2536 97.4293 16.4197H100.882C100.948 16.9429 101.201 17.3763 101.641 17.7196C102.099 18.063 102.662 18.2347 103.331 18.2347C103.984 18.2347 104.49 18.1039 104.85 17.8423C105.225 17.5807 105.413 17.2454 105.413 16.8367C105.413 16.3952 105.184 16.0681 104.727 15.8556C104.286 15.6266 103.576 15.3814 102.597 15.1197C101.584 14.8745 100.752 14.621 100.099 14.3594C99.462 14.0978 98.9069 13.6972 98.4334 13.1576C97.9763 12.618 97.7477 11.8903 97.7477 10.9746C97.7477 10.2224 97.9599 9.53568 98.3844 8.91432C98.8252 8.29296 99.4456 7.80242 100.246 7.44268C101.062 7.08295 102.017 6.90308 103.111 6.90308C104.727 6.90308 106.017 7.31187 106.98 8.12945C107.943 8.93068 108.474 10.0181 108.572 11.3916H105.29C105.241 10.852 105.013 10.4268 104.605 10.1162C104.213 9.78913 103.682 9.62562 103.013 9.62562C102.392 9.62562 101.911 9.74008 101.568 9.969C101.241 10.1979 101.078 10.5168 101.078 10.9256C101.078 11.3834 101.307 11.735 101.764 11.9802C102.221 12.2092 102.931 12.4463 103.895 12.6915C104.874 12.9368 105.682 13.1903 106.319 13.4519C106.956 13.7135 107.503 14.1223 107.96 14.6782C108.433 15.2179 108.678 15.9373 108.694 16.8367C108.694 17.6215 108.474 18.3246 108.033 18.946C107.609 19.5674 106.988 20.0579 106.172 20.4176C105.372 20.761 104.433 20.9327 103.356 20.9327Z" fill="white"/>
<path d="M113.247 5.50503C112.643 5.50503 112.137 5.31698 111.729 4.9409C111.337 4.54846 111.141 4.06609 111.141 3.49378C111.141 2.92148 111.337 2.44728 111.729 2.0712C112.137 1.67876 112.643 1.48254 113.247 1.48254C113.852 1.48254 114.349 1.67876 114.741 2.0712C115.149 2.44728 115.354 2.92148 115.354 3.49378C115.354 4.06609 115.149 4.54846 114.741 4.9409C114.349 5.31698 113.852 5.50503 113.247 5.50503ZM114.937 7.12383V20.712H111.509V7.12383H114.937Z" fill="white"/>
<path d="M117.443 13.8688C117.443 12.4953 117.712 11.2771 118.251 10.2143C118.806 9.15142 119.557 8.33384 120.504 7.76154C121.451 7.18924 122.504 6.90308 123.663 6.90308C124.545 6.90308 125.386 7.0993 126.186 7.49174C126.986 7.86782 127.622 8.37472 128.096 9.01243V2.56174H131.573V20.712H128.096V18.7007C127.671 19.3711 127.075 19.9107 126.308 20.3195C125.541 20.7283 124.651 20.9327 123.639 20.9327C122.496 20.9327 121.451 20.6384 120.504 20.0497C119.557 19.4611 118.806 18.6353 118.251 17.5725C117.712 16.4933 117.443 15.2587 117.443 13.8688ZM128.12 13.9179C128.12 13.084 127.957 12.3727 127.631 11.784C127.304 11.179 126.863 10.7212 126.308 10.4105C125.753 10.0835 125.157 9.91995 124.52 9.91995C123.884 9.91995 123.296 10.0753 122.757 10.386C122.218 10.6966 121.778 11.1545 121.435 11.7595C121.108 12.3482 120.945 13.0513 120.945 13.8688C120.945 14.6864 121.108 15.4059 121.435 16.0273C121.778 16.6323 122.218 17.0983 122.757 17.4253C123.312 17.7523 123.9 17.9159 124.52 17.9159C125.157 17.9159 125.753 17.7605 126.308 17.4498C126.863 17.1228 127.304 16.665 127.631 16.0763C127.957 15.4713 128.12 14.7518 128.12 13.9179Z" fill="white"/>
<path d="M147.534 13.6236C147.534 14.1141 147.501 14.5556 147.436 14.948H137.518C137.599 15.9291 137.942 16.6977 138.546 17.2536C139.15 17.8096 139.893 18.0875 140.775 18.0875C142.048 18.0875 142.954 17.5398 143.493 16.4442H147.191C146.799 17.7523 146.048 18.8315 144.938 19.6818C143.828 20.5158 142.464 20.9327 140.848 20.9327C139.542 20.9327 138.367 20.6466 137.322 20.0743C136.293 19.4856 135.485 18.6599 134.897 17.597C134.326 16.5342 134.04 15.3078 134.04 13.9179C134.04 12.5117 134.326 11.2771 134.897 10.2143C135.469 9.15142 136.269 8.33384 137.297 7.76154C138.326 7.18924 139.509 6.90308 140.848 6.90308C142.138 6.90308 143.289 7.18106 144.301 7.73701C145.33 8.29296 146.122 9.08602 146.677 10.1162C147.248 11.13 147.534 12.2991 147.534 13.6236ZM143.983 12.6425C143.967 11.7595 143.648 11.0564 143.028 10.5331C142.407 9.99353 141.648 9.72373 140.75 9.72373C139.901 9.72373 139.183 9.98535 138.595 10.5086C138.024 11.0155 137.673 11.7268 137.542 12.6425H143.983Z" fill="white"/>
<path d="M78.0717 33.6379V41.5602C78.0717 42.2143 78.2105 42.6803 78.4881 42.9583C78.7656 43.2199 79.2472 43.3507 79.9329 43.3507H81.5737V45.2393H79.5656C78.3248 45.2393 77.3942 44.9532 76.7738 44.3809C76.1534 43.8086 75.8432 42.8683 75.8432 41.5602V33.6379H74.1045V31.7983H75.8432V28.4136H78.0717V31.7983H81.5737V33.6379H78.0717Z" fill="white"/>
<path d="M90.9349 31.5531C91.9471 31.5531 92.8614 31.7738 93.6777 32.2153C94.494 32.6404 95.1307 33.2863 95.5879 34.153C96.0613 35.0196 96.298 36.0743 96.298 37.317V45.2393H94.094V37.6358C94.094 36.295 93.7593 35.273 93.09 34.5699C92.4206 33.8505 91.5063 33.4907 90.3472 33.4907C89.1717 33.4907 88.2329 33.8586 87.5309 34.5944C86.8452 35.3303 86.5023 36.4013 86.5023 37.8075V45.2393H84.2738V27.0891H86.5023V33.7115C86.9432 33.0247 87.5472 32.4933 88.3146 32.1172C89.0982 31.7411 89.9717 31.5531 90.9349 31.5531Z" fill="white"/>
<path d="M112.183 38.0037C112.183 38.4289 112.158 38.8786 112.109 39.3528H101.383C101.465 40.6772 101.914 41.7156 102.73 42.4677C103.563 43.2035 104.567 43.5715 105.742 43.5715C106.706 43.5715 107.506 43.3507 108.142 42.9092C108.795 42.4514 109.252 41.8464 109.514 41.0942H111.914C111.554 42.386 110.836 43.4406 109.759 44.2582C108.681 45.0594 107.342 45.4601 105.742 45.4601C104.469 45.4601 103.326 45.1739 102.314 44.6016C101.318 44.0293 100.534 43.2199 99.9628 42.1734C99.3914 41.1105 99.1057 39.8842 99.1057 38.4943C99.1057 37.1044 99.3832 35.8862 99.9383 34.8397C100.493 33.7932 101.269 32.992 102.265 32.436C103.277 31.8637 104.436 31.5776 105.742 31.5776C107.016 31.5776 108.142 31.8556 109.122 32.4115C110.101 32.9675 110.852 33.736 111.375 34.7171C111.914 35.6818 112.183 36.7774 112.183 38.0037ZM109.881 37.5377C109.881 36.6875 109.693 35.9598 109.318 35.3548C108.942 34.7334 108.428 34.2674 107.775 33.9567C107.138 33.6297 106.428 33.4662 105.644 33.4662C104.518 33.4662 103.555 33.8259 102.755 34.5454C101.971 35.2649 101.522 36.2623 101.408 37.5377H109.881Z" fill="white"/>
<path d="M126.666 45.411C125.474 45.411 124.397 45.2066 123.433 44.7978C122.486 44.389 121.735 43.8004 121.18 43.0319C120.625 42.2633 120.339 41.3558 120.323 40.3093H123.997C124.046 41.0124 124.29 41.5684 124.731 41.9772C125.188 42.386 125.809 42.5904 126.592 42.5904C127.392 42.5904 128.021 42.4023 128.478 42.0262C128.935 41.6338 129.164 41.1269 129.164 40.5055C129.164 39.9986 129.009 39.5817 128.698 39.2546C128.388 38.9276 127.996 38.6742 127.523 38.4943C127.066 38.2981 126.429 38.0855 125.613 37.8566C124.503 37.5296 123.597 37.2107 122.895 36.9C122.209 36.573 121.613 36.0906 121.107 35.4529C120.617 34.7988 120.372 33.9322 120.372 32.853C120.372 31.8392 120.625 30.9562 121.131 30.2041C121.637 29.4519 122.348 28.8796 123.262 28.4871C124.176 28.0784 125.221 27.874 126.396 27.874C128.16 27.874 129.588 28.3073 130.682 29.1739C131.792 30.0242 132.405 31.2178 132.519 32.7549H128.747C128.715 32.1662 128.462 31.6839 127.988 31.3078C127.531 30.9153 126.919 30.7191 126.152 30.7191C125.482 30.7191 124.943 30.8908 124.535 31.2342C124.143 31.5776 123.948 32.0763 123.948 32.7304C123.948 33.1882 124.094 33.5725 124.388 33.8832C124.699 34.1775 125.074 34.4228 125.515 34.619C125.972 34.7988 126.609 35.0114 127.425 35.2567C128.535 35.5837 129.441 35.9107 130.143 36.2378C130.845 36.5648 131.449 37.0554 131.956 37.7094C132.462 38.3635 132.715 39.2219 132.715 40.2848C132.715 41.2005 132.478 42.0508 132.005 42.8356C131.531 43.6205 130.837 44.25 129.923 44.7242C129.009 45.1821 127.923 45.411 126.666 45.411Z" fill="white"/>
<path d="M139.679 34.4718V41.0451C139.679 41.503 139.785 41.8382 139.997 42.0508C140.226 42.247 140.601 42.3451 141.124 42.3451H142.716V45.2393H140.56C137.671 45.2393 136.226 43.8331 136.226 41.0206V34.4718H134.61V31.6512H136.226V28.2909H139.679V31.6512H142.716V34.4718H139.679Z" fill="white"/>
<path d="M144.3 38.3962C144.3 37.0227 144.569 35.8045 145.108 34.7416C145.663 33.6788 146.406 32.8612 147.337 32.2889C148.283 31.7166 149.336 31.4304 150.496 31.4304C151.508 31.4304 152.389 31.6348 153.14 32.0436C153.908 32.4524 154.52 32.9675 154.977 33.5888V31.6512H158.43V45.2393H154.977V43.2526C154.536 43.8903 153.924 44.4217 153.14 44.8469C152.373 45.2557 151.483 45.4601 150.471 45.4601C149.328 45.4601 148.283 45.1657 147.337 44.5771C146.406 43.9884 145.663 43.1627 145.108 42.0998C144.569 41.0206 144.3 39.7861 144.3 38.3962ZM154.977 38.4452C154.977 37.6113 154.814 36.9 154.487 36.3114C154.161 35.7064 153.72 35.2485 153.165 34.9378C152.61 34.6108 152.014 34.4473 151.377 34.4473C150.741 34.4473 150.153 34.6026 149.614 34.9133C149.075 35.224 148.634 35.6818 148.292 36.2868C147.965 36.8755 147.802 37.5786 147.802 38.3962C147.802 39.2138 147.965 39.9332 148.292 40.5546C148.634 41.1596 149.075 41.6256 149.614 41.9526C150.169 42.2797 150.757 42.4432 151.377 42.4432C152.014 42.4432 152.61 42.2879 153.165 41.9772C153.72 41.6501 154.161 41.1923 154.487 40.6036C154.814 39.9986 154.977 39.2792 154.977 38.4452Z" fill="white"/>
<path d="M160.897 38.4452C160.897 37.039 161.183 35.8126 161.754 34.7661C162.326 33.7033 163.117 32.8857 164.13 32.3134C165.142 31.7247 166.301 31.4304 167.607 31.4304C169.289 31.4304 170.676 31.8556 171.77 32.7058C172.88 33.5398 173.623 34.7171 173.999 36.2378H170.301C170.105 35.6491 169.77 35.1913 169.297 34.8643C168.84 34.5209 168.268 34.3492 167.583 34.3492C166.603 34.3492 165.828 34.7089 165.256 35.4284C164.685 36.1315 164.399 37.1371 164.399 38.4452C164.399 39.737 164.685 40.7426 165.256 41.4621C165.828 42.1652 166.603 42.5168 167.583 42.5168C168.97 42.5168 169.876 41.8954 170.301 40.6527H173.999C173.623 42.1243 172.88 43.2935 171.77 44.1601C170.66 45.0267 169.272 45.4601 167.607 45.4601C166.301 45.4601 165.142 45.1739 164.13 44.6016C163.117 44.0129 162.326 43.1954 161.754 42.1489C161.183 41.086 160.897 39.8515 160.897 38.4452Z" fill="white"/>
<path d="M184.543 45.2393L179.939 39.4509V45.2393H176.51V27.0891H179.939V37.4151L184.494 31.6512H188.951L182.976 38.4698L189 45.2393H184.543Z" fill="white"/>
<path fill-rule="evenodd" clip-rule="evenodd" d="M16.559 23.0493C14.4502 24.058 14.4502 25.6935 16.559 26.7022L28.4112 32.3715C30.52 33.3802 33.939 33.3802 36.0478 32.3715L48.3429 26.4903C50.4517 25.4816 50.4517 23.8462 48.3429 22.8375L45.3415 21.4018C44.7583 21.1228 44.0805 21.1228 43.4973 21.4018L36.0478 24.9651C35.6122 25.1735 35.1208 25.3388 34.5965 25.4611C33.2521 25.7746 31.6919 25.8052 30.3054 25.5528C29.6149 25.4271 28.9674 25.2312 28.4112 24.9651L21.4046 21.6137C20.8214 21.3347 20.1435 21.3347 19.5603 21.6137L16.559 23.0493Z" fill="white"/>
<path fill-rule="evenodd" clip-rule="evenodd" d="M16.559 31.5951C14.4502 32.6038 14.4502 34.2393 16.559 35.248L28.4112 40.9173C30.52 41.926 33.939 41.926 36.0478 40.9173L48.3429 35.0361C50.4517 34.0274 50.4517 32.392 48.3429 31.3833L45.3415 29.9476C44.7583 29.6686 44.0805 29.6686 43.4973 29.9476L36.0478 33.5109C35.6122 33.7193 35.1208 33.8846 34.5965 34.0069C33.2521 34.3204 31.6919 34.351 30.3054 34.0986C29.6149 33.9729 28.9674 33.777 28.4112 33.5109L21.4046 30.1595C20.8214 29.8805 20.1435 29.8805 19.5603 30.1595L16.559 31.5951Z" fill="white"/>
<path d="M16.559 18.1477C14.4502 17.139 14.4502 15.5036 16.559 14.4949L28.8541 8.61367C30.9629 7.60496 34.3819 7.60496 36.4907 8.61367L48.3429 14.283C50.4517 15.2917 50.4517 16.9271 48.3429 17.9358L36.0478 23.817C33.939 24.8257 30.52 24.8257 28.4112 23.817L16.559 18.1477Z" fill="white"/>
</svg>
