<svg width="30" height="30" viewBox="0 0 30 30" fill="none" xmlns="http://www.w3.org/2000/svg">
<path d="M27.5124 7.06207C27.4449 6.93078 27.3473 6.81729 27.2277 6.73083C27.108 6.64438 26.9696 6.58741 26.8237 6.56457C26.6779 6.54173 26.5287 6.55365 26.3883 6.59938C26.2479 6.6451 26.1203 6.72333 26.0159 6.8277L22.4159 10.43C22.2392 10.6042 22.001 10.7018 21.7529 10.7018C21.5048 10.7018 21.2667 10.6042 21.0899 10.43L19.5337 8.87145C19.4466 8.78439 19.3775 8.68103 19.3304 8.56728C19.2833 8.45352 19.259 8.33159 19.259 8.20846C19.259 8.08533 19.2833 7.9634 19.3304 7.84965C19.3775 7.73589 19.4466 7.63253 19.5337 7.54547L23.1185 3.96012C23.2259 3.85267 23.3057 3.72071 23.3508 3.5756C23.3959 3.43049 23.4051 3.27659 23.3775 3.12714C23.35 2.9777 23.2865 2.83719 23.1926 2.71773C23.0987 2.59826 22.9771 2.50342 22.8384 2.44137V2.44137C20.1308 1.23083 16.7511 1.86247 14.62 3.9777C12.8095 5.77536 12.2698 8.58434 13.1405 11.6845C13.1875 11.8499 13.1877 12.025 13.1413 12.1904C13.0949 12.3559 13.0035 12.5053 12.8774 12.622L3.12275 21.5312C2.74274 21.8724 2.43622 22.2875 2.22189 22.751C2.00756 23.2146 1.88991 23.7169 1.87613 24.2275C1.86234 24.738 1.95271 25.246 2.14171 25.7204C2.33071 26.1949 2.61439 26.6259 2.97544 26.9871C3.33648 27.3483 3.76733 27.6321 4.2417 27.8213C4.71607 28.0106 5.22401 28.1011 5.73455 28.0876C6.24508 28.074 6.7475 27.9566 7.21115 27.7425C7.67481 27.5284 8.08998 27.222 8.43135 26.8422L17.436 17.0658C17.5511 16.9413 17.698 16.8506 17.8608 16.8034C18.0236 16.7562 18.1962 16.7544 18.3601 16.798C19.2427 17.0398 20.1531 17.1653 21.0683 17.1713C23.0253 17.1713 24.7427 16.5379 25.9813 15.3173C28.2753 13.0574 28.6251 9.22418 27.5124 7.06207ZM5.8292 26.2006C5.4433 26.2427 5.05384 26.164 4.71457 25.9753C4.3753 25.7867 4.10294 25.4974 3.93509 25.1474C3.76724 24.7973 3.71216 24.4038 3.77747 24.0212C3.84278 23.6385 4.02524 23.2856 4.29969 23.011C4.57413 22.7365 4.92702 22.5539 5.30966 22.4885C5.69229 22.423 6.08581 22.478 6.43589 22.6457C6.78598 22.8134 7.07537 23.0857 7.26414 23.4249C7.4529 23.7641 7.53173 24.1535 7.48975 24.5394C7.44355 24.964 7.25377 25.3601 6.9518 25.6622C6.64984 25.9643 6.25379 26.1542 5.8292 26.2006V26.2006Z" fill="white"/>
</svg>
