<svg width="30" height="30" viewBox="0 0 30 30" fill="none" xmlns="http://www.w3.org/2000/svg">
<path d="M20.2228 28.1252H14.9998V25.4469C15.0006 25.1992 14.9512 24.9539 14.8546 24.7258C14.7581 24.4977 14.6163 24.2915 14.4379 24.1197C13.9885 23.6768 13.3345 23.4277 12.6467 23.4377C12.0347 23.4435 11.4445 23.6648 10.9797 24.0629C10.675 24.3324 10.3123 24.7988 10.3123 25.4937V28.1252H5.13376C4.26971 28.1243 3.44132 27.7806 2.83034 27.1696C2.21937 26.5587 1.87571 25.7303 1.87478 24.8662V19.6877H4.5531C5.08982 19.6877 5.61189 19.458 6.02322 19.0432C6.25206 18.8125 6.43302 18.5389 6.5557 18.238C6.67839 17.9371 6.74036 17.6149 6.73806 17.29C6.72048 16.0484 5.69861 15.0002 4.50623 15.0002H1.87478V9.76543C1.87309 9.3388 1.95807 8.91627 2.12456 8.52346C2.29105 8.13065 2.53558 7.77575 2.84334 7.48027C3.45795 6.88744 4.27985 6.55817 5.13376 6.56269H8.83923V5.71426C8.83923 5.20436 8.94079 4.69956 9.13799 4.22934C9.33518 3.75911 9.62406 3.33287 9.98777 2.97549C10.3515 2.61812 10.7827 2.33676 11.2563 2.14785C11.7299 1.95893 12.2364 1.86625 12.7463 1.87519C14.8258 1.91152 16.5174 3.65527 16.5174 5.76172V6.56269H20.2228C20.6462 6.55815 21.0663 6.63818 21.4583 6.79811C21.8504 6.95804 22.2065 7.19465 22.5059 7.49405C22.8053 7.79345 23.0419 8.14962 23.2019 8.54167C23.3618 8.93372 23.4418 9.35375 23.4373 9.77715V13.4826H24.2377C26.381 13.4826 28.1248 15.1818 28.1248 17.2701C28.1248 19.4152 26.4027 21.1607 24.2857 21.1607H23.4373V24.8662C23.4373 26.6633 21.9953 28.1252 20.2228 28.1252Z" fill="white"/>
</svg>
