<svg width="30" height="30" viewBox="0 0 30 30" fill="none" xmlns="http://www.w3.org/2000/svg">
<path d="M15.0002 1.87512C7.7522 1.87512 1.87524 7.90442 1.87524 15.3341C1.87524 21.2814 5.63696 26.3204 10.8518 28.1017C10.925 28.1176 10.9996 28.1254 11.0745 28.1251C11.5608 28.1251 11.7483 27.7677 11.7483 27.4571C11.7483 27.1349 11.7366 26.2911 11.7307 25.1661C11.2966 25.2679 10.8524 25.321 10.4065 25.3243C7.8811 25.3243 7.30688 23.3614 7.30688 23.3614C6.70923 21.8087 5.8479 21.3927 5.8479 21.3927C4.70532 20.59 5.84204 20.5665 5.92993 20.5665H5.93579C7.25415 20.6837 7.94556 21.9611 7.94556 21.9611C8.60181 23.1095 9.48071 23.4318 10.2659 23.4318C10.785 23.4214 11.2962 23.3016 11.7659 23.0802C11.8831 22.213 12.2229 21.6212 12.5979 21.2814C9.68579 20.9415 6.62134 19.7872 6.62134 14.631C6.62134 13.1603 7.1311 11.9591 7.96899 11.0216C7.83423 10.6818 7.38306 9.31067 8.0979 7.45911C8.19379 7.43616 8.29234 7.42631 8.39087 7.42981C8.86548 7.42981 9.93774 7.61145 11.7073 8.84192C13.8574 8.24034 16.1314 8.24034 18.2815 8.84192C20.051 7.61145 21.1233 7.42981 21.5979 7.42981C21.6964 7.42631 21.795 7.43616 21.8909 7.45911C22.6057 9.31067 22.1545 10.6818 22.0198 11.0216C22.8577 11.965 23.3674 13.1661 23.3674 14.631C23.3674 19.7989 20.2971 20.9357 17.3733 21.2696C17.842 21.6857 18.2639 22.506 18.2639 23.7599C18.2639 25.5587 18.2463 27.0118 18.2463 27.4513C18.2463 27.7677 18.428 28.1251 18.9143 28.1251C18.993 28.1255 19.0716 28.1176 19.1487 28.1017C24.3694 26.3204 28.1252 21.2755 28.1252 15.3341C28.1252 7.90442 22.2483 1.87512 15.0002 1.87512Z" fill="white"/>
</svg>
